<svg width="492" height="380" viewBox="0 0 492 380" fill="none" xmlns="http://www.w3.org/2000/svg">
<rect x="35.4463" y="52.5774" width="454.908" height="283.673" rx="3" stroke="#78AEC3" stroke-opacity="0.15" stroke-width="2"/>
<rect x="232.536" y="64.4452" width="243.832" height="161.605" rx="3" stroke="#DCE9EE" stroke-opacity="0.2" stroke-width="2"/>
<rect x="246.794" y="99.8962" width="66.968" height="75.4449" rx="4" fill="#8EC1D5" fill-opacity="0.15"/>
<rect x="321.794" y="99.8962" width="66.968" height="75.4449" rx="4" fill="#8EC1D5" fill-opacity="0.15"/>
<rect x="396.794" y="99.8962" width="66.968" height="75.4449" rx="4" fill="#8EC1D5" fill-opacity="0.15"/>
<rect x="145.918" y="71.9223" width="63.3605" height="13.5631" rx="4" fill="#8EC1D5" fill-opacity="0.15"/>
<rect x="58.748" y="162.34" width="63.3605" height="9.49017" rx="4" fill="#8EC1D5" fill-opacity="0.15"/>
<rect x="145.918" y="93.1146" width="63.3605" height="13.5631" rx="4" fill="#8EC1D5" fill-opacity="0.15"/>
<rect x="58.748" y="177.169" width="38.3774" height="9.49017" rx="4" fill="#8EC1D5" fill-opacity="0.15"/>
<rect x="145.918" y="114.307" width="63.3605" height="13.5631" rx="4" fill="#8EC1D5" fill-opacity="0.15"/>
<rect x="58.748" y="191.997" width="49.2025" height="9.49017" rx="4" fill="#8EC1D5" fill-opacity="0.15"/>
<rect x="58.748" y="206.825" width="63.3605" height="9.49017" rx="4" fill="#8EC1D5" fill-opacity="0.15"/>
<rect x="246.795" y="74.4653" width="216.967" height="17.8016" rx="4" fill="#9EC3D2" fill-opacity="0.35"/>
<rect x="55.0078" y="70.261" width="65.2726" height="17.8016" rx="4" fill="#9EC3D2" fill-opacity="0.15"/>
<rect x="48.9336" y="240.266" width="244.832" height="84.6173" rx="3.5" stroke="#78AEC3" stroke-opacity="0.15"/>
<g filter="url(#filter0_d_4954_38499)">
<rect x="315.958" y="240.266" width="160.91" height="84.6173" rx="3.5" stroke="#78AEC3" stroke-opacity="0.15" shape-rendering="crispEdges"/>
</g>
<path d="M118.133 122.182C118.393 124.376 116.58 126.175 114.371 126.175C108.827 126.175 98.0801 126.175 85.732 126.175C73.3838 126.175 62.6374 126.175 57.0934 126.175C54.8843 126.175 53.0706 124.376 53.3313 122.182C55.2774 105.807 69.0416 93.1151 85.732 93.1151C102.422 93.1151 116.187 105.807 118.133 122.182Z" fill="#9EC3D2" fill-opacity="0.35"/>
<rect width="20.0404" height="11.6096" rx="4" transform="matrix(4.37114e-08 -1 -1 -4.37114e-08 463.805 218.043)" fill="#9EC3D2" fill-opacity="0.35"/>
<rect width="27.8823" height="11.6096" rx="4" transform="matrix(4.60499e-08 -1 -1 -4.14917e-08 444.158 218.043)" fill="#9EC3D2" fill-opacity="0.35"/>
<rect width="20.0404" height="11.6096" rx="4" transform="matrix(4.60499e-08 -1 -1 -4.14917e-08 424.511 218.043)" fill="#9EC3D2" fill-opacity="0.35"/>
<rect width="33.1102" height="11.6096" rx="4" transform="matrix(4.60499e-08 -1 -1 -4.14917e-08 404.864 218.043)" fill="#9EC3D2" fill-opacity="0.35"/>
<rect width="33.1102" height="11.6096" rx="4" transform="matrix(4.60499e-08 -1 -1 -4.14917e-08 387.896 218.043)" fill="#9EC3D2" fill-opacity="0.35"/>
<rect width="9.14887" height="11.6096" rx="4" transform="matrix(4.60499e-08 -1 -1 -4.14917e-08 368.249 218.043)" fill="#9EC3D2" fill-opacity="0.35"/>
<rect width="25.704" height="11.6096" rx="4" transform="matrix(4.60499e-08 -1 -1 -4.14917e-08 351.281 218.043)" fill="#9EC3D2" fill-opacity="0.35"/>
<rect width="17.8621" height="11.6096" rx="4" transform="matrix(4.60499e-08 -1 -1 -4.14917e-08 331.634 218.043)" fill="#9EC3D2" fill-opacity="0.35"/>
<rect width="22.6544" height="11.6096" rx="4" transform="matrix(4.60499e-08 -1 -1 -4.14917e-08 311.987 218.043)" fill="#9EC3D2" fill-opacity="0.35"/>
<rect width="31.3676" height="11.6096" rx="4" transform="matrix(4.60499e-08 -1 -1 -4.14917e-08 292.34 218.043)" fill="#9EC3D2" fill-opacity="0.35"/>
<rect width="20.0404" height="11.6096" rx="4" transform="matrix(4.60499e-08 -1 -1 -4.14917e-08 275.372 218.043)" fill="#9EC3D2" fill-opacity="0.35"/>
<rect width="16.1194" height="11.6096" rx="4" transform="matrix(4.60499e-08 -1 -1 -4.14917e-08 258.404 218.043)" fill="#9EC3D2" fill-opacity="0.35"/>
<rect x="56.9106" y="316.906" width="38.994" height="11.02" rx="4" transform="rotate(-90 56.9106 316.906)" fill="#9EC3D2" fill-opacity="0.35"/>
<rect x="75.5601" y="316.906" width="54.2525" height="11.02" rx="4" transform="rotate(-90 75.5601 316.906)" fill="#9EC3D2" fill-opacity="0.35"/>
<rect x="94.209" y="316.906" width="38.994" height="11.02" rx="4" transform="rotate(-90 94.209 316.906)" fill="#9EC3D2" fill-opacity="0.35"/>
<rect x="112.858" y="316.906" width="64.4249" height="11.02" rx="4" transform="rotate(-90 112.858 316.906)" fill="#9EC3D2" fill-opacity="0.35"/>
<rect x="128.965" y="316.906" width="64.4249" height="11.02" rx="4" transform="rotate(-90 128.965 316.906)" fill="#9EC3D2" fill-opacity="0.35"/>
<rect x="147.614" y="316.906" width="17.8016" height="11.02" rx="4" transform="rotate(-90 147.614 316.906)" fill="#9EC3D2" fill-opacity="0.35"/>
<rect x="163.72" y="316.906" width="50.014" height="11.02" rx="4" transform="rotate(-90 163.72 316.906)" fill="#9EC3D2" fill-opacity="0.35"/>
<rect x="182.37" y="316.906" width="34.7555" height="11.02" rx="4" transform="rotate(-90 182.37 316.906)" fill="#9EC3D2" fill-opacity="0.35"/>
<rect x="201.019" y="316.906" width="44.0802" height="11.02" rx="4" transform="rotate(-90 201.019 316.906)" fill="#9EC3D2" fill-opacity="0.35"/>
<rect x="219.668" y="316.906" width="61.0341" height="11.02" rx="4" transform="rotate(-90 219.668 316.906)" fill="#9EC3D2" fill-opacity="0.35"/>
<rect x="235.774" y="316.906" width="38.994" height="11.02" rx="4" transform="rotate(-90 235.774 316.906)" fill="#9EC3D2" fill-opacity="0.35"/>
<rect x="251.88" y="316.906" width="31.3647" height="11.02" rx="4" transform="rotate(-90 251.88 316.906)" fill="#9EC3D2" fill-opacity="0.35"/>
<rect x="270.53" y="316.906" width="31.3647" height="11.02" rx="4" transform="rotate(-90 270.53 316.906)" fill="#9EC3D2" fill-opacity="0.35"/>
<path d="M414.782 288.326L415.502 288.727L415.716 288.718L417.506 288.216L417.709 288.752L417.566 289.204L417.179 289.455L416.212 289.404L414.829 288.71L414.782 288.326Z" fill="#9EC3D2" fill-opacity="0.35"/>
<path d="M418.01 282.536L418.164 283.038L419.905 283.164L420.027 282.133L420.363 281.983L420.455 281.606L419.905 281.732L419.294 282.487L418.01 282.536Z" fill="#9EC3D2" fill-opacity="0.35"/>
<path d="M421.563 277.065L421.844 278.864L422.543 278.99L422.609 279.313L422.107 279.656L423.042 280.272L424.858 279.738L425.003 279.106L426.146 278.522L426.584 277.171L426.911 276.883L426.572 276.401L427.678 275.842L427.537 275.68L427.026 275.706L426.98 276.09L426.295 276.085L426.282 275.572L426.061 275.357L425.69 275.633L425.701 275.886L425.141 276.059L424.107 276.005L422.765 277.155L421.563 277.065Z" fill="#9EC3D2" fill-opacity="0.35"/>
<path d="M402.11 274.569V275.234L402.343 275.594L402.511 275.578L402.799 275.149L402.631 274.957L402.566 274.482L402.343 274.313L402.11 274.569Z" fill="#9EC3D2" fill-opacity="0.35"/>
<path d="M413.718 274.588L414.566 275.491L414.317 275.73L413.716 275.644L412.971 275.099L413.011 274.74L413.718 274.588Z" fill="#9EC3D2" fill-opacity="0.35"/>
<path d="M399.389 295.786L399.991 297.624L399.977 298.205L399.096 298.979L398.964 300.236L402.356 300.261L403.459 300.587L404.368 300.49L403.838 299.947L403.84 298.397L404.883 298.36V297.756L404.036 297.727L403.867 296.295L403.51 296.299L403.317 296.157L403.107 296.166L402.828 296.608H401.754L401.505 296.403L401.579 296.113L401.285 295.762L399.389 295.786Z" fill="#9EC3D2" fill-opacity="0.35"/>
<path d="M399.023 295.284L399.331 295.61L399.728 295.302L399.612 294.983L399.513 294.978L399.023 295.284Z" fill="#9EC3D2" fill-opacity="0.35"/>
<path d="M367.029 304.664L367.372 304.927L366.07 306.508L365.612 306.922L365.771 308.729L366.776 309.727L365.932 310.931L365.292 311.156H364.56L364.765 312.096L363.622 312.417L363.896 313.207L363.211 314.994L364.057 315.559L363.599 316.48L362.822 317.478L363.233 318.174L362.228 318.305L361.405 317.478L361.267 314.9L359.988 310.523L360.375 308.992L359.552 307.035L360.099 304.496L360.603 304.006L360.479 303.635L361.126 303.152L362.568 303.233L363.373 303.936L364.304 303.949L365.258 304.426L364.977 304.963L365.045 305.506L366.396 305.454L367.029 304.664Z" fill="#9EC3D2" fill-opacity="0.35"/>
<path d="M364.105 319.189L364.151 320.015L364.929 319.959L365.591 319.601L364.471 319.413L364.105 319.189Z" fill="#9EC3D2" fill-opacity="0.35"/>
<path d="M397.977 271.733L397.862 271.928L397.961 272.066L398.373 271.997H398.723L399.103 272.26L399.91 272.14L400.503 271.851L400.655 271.656L400.633 271.405L400.099 271.079L399.384 271.084L399.323 271.416L398.57 271.717L397.977 271.733Z" fill="#9EC3D2" fill-opacity="0.35"/>
<path d="M447.544 306.077L447.482 309.741L446.794 310.154L446.731 310.515L447.671 311.03L449.991 310.67H451.182L451.62 310.152L454.253 309.74L456.133 310.205L456.008 310.824L456.259 311.443L457.701 311.237L457.762 311.546L456.822 312.113L457.135 312.32L457.824 312.113L457.636 313.817L458.953 314.643L459.706 314.437L460.082 314.746L462.276 314.487L464.345 311.751L465.098 311.596L466.601 309.325L466.977 307.364L466.038 306.384L466.414 306.178L465.661 304.267L464.847 303.803L464.972 301.222L464.219 300.758L464.032 299.312H463.655L462.401 302.719L461.712 302.771L460.145 301.48L461.023 299.569L459.394 299.311L457.575 299.724L457.073 300.911L456.259 301.065L456.197 300.239L452.875 301.891L452.937 302.511L452.435 303.078H451.18L448.484 304.007L447.544 306.077Z" fill="#9EC3D2" fill-opacity="0.35"/>
<path d="M458.953 315.936L458.64 316.968L458.702 317.69L459.642 317.638L460.707 316.296L458.953 315.936Z" fill="#9EC3D2" fill-opacity="0.35"/>
<path d="M414.017 274.274L413.838 274.522L414.67 275.415L414.96 275.338L415.437 275.747L415.644 275.031L416.162 275.098L416.141 274.893L415.29 274.284L415.127 274.642L414.017 274.274Z" fill="#9EC3D2" fill-opacity="0.35"/>
<path d="M400.481 273.006L400.415 273.094L401.601 274.094L402.036 273.571L402.02 273.365L401.64 272.988L400.481 273.006Z" fill="#9EC3D2" fill-opacity="0.35"/>
<path d="M435.954 280.828L435.722 281.17L436.323 282.103L436.34 282.831L436.45 283.025L437.155 283.035L437.554 282.722L437.844 282.865L437.902 283.308L438.134 283.19L438.148 282.624L437.953 282.605L437.831 282.124L437.34 282.11L437.218 281.842L437.519 281.515L437.523 281.353H436.651L435.954 280.828Z" fill="#9EC3D2" fill-opacity="0.35"/>
<path d="M394.617 269.769L394.504 270L395.719 270.656L395.801 270.664L395.878 270.482L396.049 270.383L395.776 270.133H395.588L395.332 269.895L394.617 269.769Z" fill="#9EC3D2" fill-opacity="0.35"/>
<path d="M392.67 286.772L393.313 286.73L394.367 287.949L393.388 288.553L392.68 288.404L391.727 288.414L391.574 288.87L390.775 288.902L390.556 288.658L390.839 287.916L392.67 286.772Z" fill="#9EC3D2" fill-opacity="0.35"/>
<path d="M403.421 273.505L403.449 274.224L403.746 274.729L404.861 274.745L405.363 274.455L405.856 274.295L405.735 273.835L405.847 273.59L405.596 273.483L405.251 273.506L404.981 273.729L403.846 273.736L403.421 273.505Z" fill="#9EC3D2" fill-opacity="0.35"/>
<path d="M407.798 294.27L408.552 294.257L408.356 294.797L408.165 294.932H407.932L407.766 294.567L407.798 294.27Z" fill="#9EC3D2" fill-opacity="0.35"/>
<path d="M394.104 290.412H394.479L394.5 289.543L394.973 288.981L394.952 288.004L394.522 287.995L393.786 288.466L394.093 288.945L394.104 290.412Z" fill="#9EC3D2" fill-opacity="0.35"/>
<path d="M450.831 290.377L450.322 290.882L450.739 290.988L450.974 290.72L450.831 290.377Z" fill="#9EC3D2" fill-opacity="0.35"/>
<path d="M358.767 298.108L360.222 297.59L360.702 297.627L361.022 298.719L363.238 299.321L363.604 300.243L364.517 300.337L364.906 301.127L364.632 301.842L363.146 301.936L362.598 303.083L361.432 303.065L361.066 303.008L360.393 303.542L360.061 303.516L358.918 301.352L359.234 300.965L359.345 299.435L359.063 298.523L358.767 298.108Z" fill="#9EC3D2" fill-opacity="0.35"/>
<path d="M368.578 307.646L369.683 305.911L369.723 304.453L371.784 303.366H372.938L373.844 302.112L374.008 299.703L373.637 299.059L375.821 297.431L375.904 295.633L372.937 294.446L369.354 293.531L367.665 293.395L368.119 292.615L367.996 291.429L367.626 291.329L367.08 292.216L366.794 292.509L366.059 292.243L363.587 292.955L362.764 292.108L362.897 291.222L362.119 291.869L361.261 291.491L361.174 291.591L361.176 291.898L361.916 292.223L360.805 293.18L360.103 293.174L359.393 292.584L358.589 292.604L358.49 293.306L358.951 293.764L358.407 295.188L357.771 295.229L356.758 295.752L356.511 296.778L357.389 297.547L357.55 297.398L358.167 297.262L358.693 297.987L360.2 297.459L360.785 297.486L361.188 298.651L363.338 299.209L363.709 300.138L364.625 300.228L365.061 301.116L364.766 301.906L365.151 302.319L365.095 302.934L366.127 302.854L367.072 303.83L366.998 304.516L367.558 304.903L366.215 306.565L368.578 307.646Z" fill="#9EC3D2" fill-opacity="0.35"/>
<path d="M355.393 281.697L355.17 281.641L355.153 281.992L355.427 282.217L355.614 281.992L355.393 281.697ZM355.836 282.246L355.529 282.386L355.818 282.723L355.972 282.554L355.836 282.246ZM356.828 282.498L356.503 282.484L356.536 282.653L356.775 282.935L356.98 282.751L356.828 282.498ZM356.674 282.162L356.144 281.978L356.042 281.543L356.246 281.472L356.451 281.81L356.656 281.937L356.674 282.162ZM356.161 281.275L355.887 281.219L355.836 280.938L355.547 280.854L355.734 280.699L356.075 280.798L356.331 280.925L356.161 281.275Z" fill="#9EC3D2" fill-opacity="0.35"/>
<path d="M435.924 280.101L436.198 280.408L437.123 280.413L437.029 279.995L435.924 280.101Z" fill="#9EC3D2" fill-opacity="0.35"/>
<path d="M402.903 303.658L403.283 303.754L403.23 304.641L403.62 304.685L404.518 304.023L405.596 304.118L405.882 303.526L407.246 302.508L405.608 300.967L405.587 300.715L405.406 300.671L404.91 301.045L403.62 301.071L403.439 302.385L402.933 302.48L402.903 303.658Z" fill="#9EC3D2" fill-opacity="0.35"/>
<path d="M403.283 268.292L403.548 268.649L403.442 268.933L403.46 269.158L403.557 269.428L404.105 269.174L404.785 269.189L405.262 269.349H406.473L406.827 268.657L407.038 268.396V268.221L406.278 267.347L405.607 267.129L405.059 267.079L404.582 267.203L404.6 267.596L403.938 268.28L403.283 268.292Z" fill="#9EC3D2" fill-opacity="0.35"/>
<path d="M349.2 285.057L349.191 285.584H349.34L349.845 284.813H349.502L349.2 285.057Z" fill="#9EC3D2" fill-opacity="0.35"/>
<path d="M341.013 251.308L341.364 251.743L341.541 252.323L342.421 252.504L343.038 251.961L343.566 252.179L345.062 252.287L346.119 251.924L346.295 253.12H346.912V252.613L347.529 252.649L349.069 254.135L350.082 254.642L349.554 255.331L349.774 255.511L351.752 255.837L351.796 256.562L352.324 256.635L352.457 255.547L353.293 255.367L353.909 256.128L355.229 256.635L355.89 256.743L356.329 256.308L356.374 255.619L357.165 255.22L357.429 255.801L356.724 256.816L356.812 257.322L357.208 256.817L358 256.236L358.044 255.475L357.604 254.894L357.736 254.424L358.793 253.989L359.277 254.279L359.365 256.816L360.113 256.273L360.553 256.491L359.936 257.361L360.728 257.505L361.873 256.055L362.841 256.888L362.445 258.374L361.477 258.809L360.553 258.446L358.882 258.736L359.058 259.207L358.618 259.788L357.255 260.042L355.714 261.02L354.35 262.507L354.173 262.977L355.097 263.267L355.449 263.992L356.725 265.043L358.749 265.768L358.31 267.434L358.266 267.905L358.794 268.195L359.499 267.434L359.587 265.984L360.688 265.948L361.216 265.114L361.305 263.847L362.713 261.6L364.473 262.107L365.397 263.158L365.001 264.209L365.706 264.536L367.421 263.592L367.905 266.165L369.49 267.723L369.534 268.52L367.775 268.882L366.939 269.607L365.179 269.281L364.3 269.245L362.759 270.224L363.683 270.043L364.828 269.862L365.049 270.08L364.741 270.877L364.785 271.602L365.314 271.892L365.842 271.784L366.107 271.458H366.458L365.886 272.327L364.785 272.363L364.301 272.943H363.684L363.508 272.509L364.387 271.784L363.331 272.074L363.283 270.843L362.979 270.698L362.055 271.025L361.967 271.641H359.854L358.049 272.657L355.628 273.31L355.365 273.019L356.584 271.532L355.892 270.988L355.452 270.297L354.556 269.739L353.595 269.673L351.872 268.687L339.379 267.01L339.172 266.318L338.027 265.449V264.724L338.204 264.071L338.115 263.709L337.676 263.347L337.587 262.766L338.732 262.113L338.027 258.998L337.059 258.961L336.179 258.018L341.013 251.307L341.013 251.308Z" fill="#9EC3D2" fill-opacity="0.35"/>
<path d="M336.703 262.823L336.403 263.293L336.507 263.627L336.703 263.727L336.657 263.862L336.447 263.912L336.507 264.407L336.733 264.593L336.913 264.433L336.687 263.951L336.821 263.567L337.151 263.207L336.911 262.874L336.703 262.823ZM337.696 265.644L337.426 265.731L337.922 266.202L338.042 266.759L338.539 267.192L338.959 267.13V266.561L338.449 266.301L337.696 265.644ZM364.801 253.755L364.488 254.014L364.762 254.369L366.056 254.498L365.232 253.787L364.801 253.755ZM349.053 249.464L349.092 250.045L347.682 251.239L348.036 252.206L349.053 251.981L349.642 251.27L351.129 250.818L352.343 250.753L351.403 249.915L350.933 250.205L350.58 250.108L350.383 249.753L349.953 249.398L349.053 249.464ZM350.894 247.755L350.582 248.207L352.11 248.659L352.658 247.981L352.893 248.433H353.285L354.029 247.756L353.128 247.563L352.774 247.337L352.304 247.724L350.894 247.755ZM353.559 248.658L352.345 249.077V249.399L353.912 249.883L353.559 250.205L353.794 250.624L354.773 250.269H355.596L355.989 250.784L356.654 250.235L356.497 249.718L355.949 249.88L355.872 249.235L356.146 248.848H355.872L355.44 249.073L355.245 249.202L355.363 249.654L355.05 249.847L354.58 249.815L354.462 249.235L353.559 248.658ZM355.165 247.658L355.046 247.98L355.79 248.27L356.338 248.012L356.299 247.818L355.165 247.658ZM355.751 247.109L355.204 247.271L355.242 247.496L356.457 247.431L356.418 247.206L355.751 247.109ZM358.377 247.658L358.299 247.883L358.103 248.109V248.431L358.847 248.334L359.63 248.883H359.904V248.334L359.121 247.624L358.377 247.658ZM360.375 248.303L360.688 248.593L360.414 248.98L360.61 249.399L361.472 249.012V248.722L360.963 248.238L360.375 248.303ZM361.511 247.561L361.55 248.077H362.609L362.883 248.27L362.844 248.495L361.903 248.592L362.57 249.334L363.471 249.463L364.724 249.011L362.921 246.784L362.374 247.075L362.412 247.462L361.785 247.268L361.511 247.561ZM352.384 251.207L350.896 251.529L350.034 252.142L350.111 252.82L351.679 253.207L351.325 253.852L350.189 253.271L349.876 253.755L350.62 254.174L350.581 254.851L351.717 255.11L353.088 255.045L353.323 254.689L354.341 255.625L355.046 255.432L355.164 254.786L355.673 255.076L355.751 254.431L355.124 254.109L355.162 252.078L354.615 251.722L354.028 252.368L352.384 251.207ZM357.163 252.626L356.654 252.433L356.38 252.723L356.928 253.433L356.967 254.111L358.142 253.53V252.691L358.574 252.336L358.142 252.078H357.437L357.163 252.626ZM359.67 252.336L358.847 252.885L359.043 253.562H359.552L359.787 253.207L360.14 253.497L360.494 253.465L361.434 252.82L359.67 252.336ZM359.591 251.27L359.395 251.592L360.257 251.851L360.492 251.561L359.591 251.27ZM359.082 250.045L358.22 250.141L357.711 250.528L358.651 250.56L358.377 251.14L358.573 251.399L358.847 251.367L359.513 250.497L359.082 250.045ZM360.571 249.82L360.101 249.948L360.179 250.464L360.962 250.882L361.001 251.204L360.766 251.398L360.885 252.043L363.9 252.849L364.724 253.074L365.547 252.494L364.568 251.848L363.667 252.042L362.414 251.945L361.944 251.558L361.826 250.494L361.043 250.172L360.571 249.82ZM363.038 253.175L362.176 253.11L361.158 253.432L360.61 254.044L360.767 255.721L362.451 255.787L364.057 256.432L365.194 257.496L366.056 257.464L365.821 258.463L365.038 259.527L364.176 259.849L363.548 259.753L363.236 259.527L362.766 260.043L362.962 260.558L363.628 260.59L364.451 260.268L365.156 261.752L366.919 262.688L368.133 261.43L367.116 260.076L367.704 259.527L368.527 260.657L370.015 259.592L369.741 259.109L368.723 259.367L368.018 257.786L368.684 256.883L367.352 255.723L366.608 256.142L365.903 254.884L364.416 255.046L364.023 253.53L362.81 254.207L362.691 255.045H362.025L362.103 254.303L363.038 253.175ZM363.548 250.11V250.4L362.686 250.562L362.921 250.883L363.9 251.205L364.998 251.302L365.78 251.754L366.563 251.399L366.015 250.947H366.72L367.151 250.56L368.21 250.431V250.238L367.621 249.916L367.699 249.561L369.344 249.786L371.773 249.012L370.872 248.787L371.107 248.529H372.987L373.299 248.27L369.499 247.173L368.598 246.915L367.619 247.495L366.522 246.753L365.933 246.721L365.815 247.335L365.071 246.787L364.209 247.012L364.366 247.367L365.66 247.593L365.582 248.108L366.287 248.463L368.012 248.108L368.051 248.592L366.641 249.141L365.779 248.592L364.996 248.657L365.779 249.561L365.386 249.723L364.798 249.304L364.367 249.529L364.759 250.141H365.426L365.268 250.722L364.72 250.657L364.015 250.043L363.548 250.11ZM360.057 258.988L359.31 259.756L359.264 260.602L359.917 260.295H360.71L361.27 260.718L361.785 260.371L360.057 258.988ZM369.158 268.98L367.291 270.441L367.478 270.787L369.764 271.479L370.091 271.018L369.904 270.25L369.157 270.327L368.736 269.943L369.436 269.366L369.158 268.98Z" fill="#9EC3D2" fill-opacity="0.35"/>
<path d="M399.523 295.642L401.345 295.616L401.714 296.045L401.7 296.361L401.836 296.462H402.741L403 296.044H403.37L403.52 296.168L404.027 296.157L404.177 297.612L405.053 297.636V297.748L407.408 298.616L407.517 298.785H408.01L407.955 298.176L407.065 297.826L407.12 297.364L407.503 296.631L408.38 296.607L407.627 294.565L407.641 293.698L408.832 292.176L408.845 291.963L408.667 291.883L408.674 291.47L408.457 291.454L408.238 291.226L404.642 291.093L403.983 291.617L402.904 291.037L402.524 291.227L402.249 293.123L401.566 293.553L401.361 293.935L401.398 294.499L400.168 295.321L399.841 295.2L399.885 295.357L399.523 295.642Z" fill="#9EC3D2" fill-opacity="0.35"/>
<path d="M400.633 291.071L401.456 291.798L401.781 291.454L402.299 291.472L402.41 291.137L402.919 290.877L403.976 291.472L404.585 290.978L406.951 291.063L404.756 289.212L405.051 289.062L405.092 288.736L404.594 288.544H403.862L402.683 289.499L402.643 289.891L401.708 289.867L401.678 290.034L401.069 289.983L400.519 290.837L400.633 291.071Z" fill="#9EC3D2" fill-opacity="0.35"/>
<path d="M399.809 292.293L399.799 292.503L400.643 292.52L400.673 294.312L399.901 294.295L399.454 294.011L399.108 294.17L399.092 294.249L399.27 294.32L399.321 294.688L398.845 295.023L398.947 295.2L399.475 294.865H399.73L399.811 295.065L400.147 295.182L401.224 294.437L401.203 293.893L401.428 293.45L402.118 293.031L402.304 291.614L401.813 291.616L401.244 292.253L399.809 292.293Z" fill="#9EC3D2" fill-opacity="0.35"/>
<path d="M396.613 271.626L395.843 272.296L395.858 272.364L396.175 272.283L396.46 272.607L396.94 272.468L397.273 272.679L397.409 272.615L397.819 272.09L397.715 272.009L397.31 272.001L397.114 271.673L396.613 271.626Z" fill="#9EC3D2" fill-opacity="0.35"/>
<path d="M389.397 291.46L390.153 291.023L391.093 290.888L392.053 291.057L391.563 290.452L391.42 290.083L391.563 288.99L390.706 289.023L390.318 288.72L389.501 288.737L389.113 288.788L389.153 289.527L388.949 289.595L388.703 289.965L389.335 290.57L389.397 291.46Z" fill="#9EC3D2" fill-opacity="0.35"/>
<path d="M363.419 318.511L362.665 319.866L363.967 319.978L363.99 319.076L363.419 318.511ZM363.163 318.299L362.596 318.811L362.527 319.413L361.43 318.905L360.264 317.532L359.921 317.042L360.402 316.534L360.356 315.894L359.808 315.707L359.374 315.444L359.466 315.086L360.036 314.954L360.151 312.885L359.261 312.471L358.679 301.701L358.829 301.488L359.967 303.632L360.331 303.638L360.45 303.98L359.965 304.459L359.409 307.04L360.201 309.026L359.835 310.531L361.124 314.955L361.261 317.542L362.185 318.416L363.163 318.299ZM359.398 312.886L359.17 313.168L359.285 313.657L359.513 313.676L359.628 313.055L359.398 312.886Z" fill="#9EC3D2" fill-opacity="0.35"/>
<path d="M397.481 291.104L398.05 291.531L398.009 292.193L401.129 292.134L401.384 291.9L400.49 291.113L400.358 290.829L400.927 289.958L400.54 289.38L400.215 289.238V288.944L400.591 288.744L400.612 287.831L400.314 287.804L400.309 288.283L398.998 290.283L398.195 290.316L397.646 290.625L397.481 291.104Z" fill="#9EC3D2" fill-opacity="0.35"/>
<path d="M431.507 268.838L430.895 270.094L430.052 270.058L429.163 271.648L429.918 272.433L428.363 274.188L427.565 274.078L427.031 274.626L427.163 274.955L427.785 274.992L428.096 275.576L428.719 275.686L430.628 277.697V278.721L431.561 279.196L432.582 279.051L433.871 279.672L435.425 280.037L436.18 279.964L437.024 279.89L438.8 278.94L439.378 279.014L439.598 279.442L440.088 279.562L440.754 280.366L440.311 281.17L440.578 281.719L441.332 281.938L441.464 282.597L442.353 282.67L442.485 282.341L443.774 281.792L444.572 281.828L445.505 282.669L446.127 282.449L446.526 282.486L446.705 282.889L447.015 282.925L447.459 282.414L449.235 281.865L450.834 280.292L451.367 278.794L451.323 277.806L450.657 277.696L451.056 277.331L450.967 276.746L449.28 275.357V274.663L449.767 274.151L450.255 273.968L450.299 273.565H449.056L448.833 274.113L448.255 274.004L447.545 273.383L447.988 272.433L448.61 271.884L449.188 271.92L449.099 272.76L449.41 272.98L450.165 272.359L450.432 272.323L450.343 271.848L451.054 271.153L451.587 271.189L451.898 270.385L452.262 270.228L452.299 269.727L451.946 269.424L451.916 268.632L452.596 268.596L452.552 266.556L452.075 266.79L451.899 267.313L451.102 267.311L448.793 266.25L447.125 264.607L445.433 264.592L445.002 264.899L445.549 265.924L445.358 266.886L444.676 267.117L444.293 267.092L444.264 268.043L444.664 268.117L445.374 267.861L446.307 268.227V268.592L445.641 268.628L445.107 269.579L444.619 269.614L442.888 271.479L441.068 272.137L439.824 272.21L438.981 271.735L437.782 272.248L436.494 271.919L436.183 271.224L434.008 271.114L432.854 269.579H432.366L431.974 268.868L431.507 268.838Z" fill="#9EC3D2" fill-opacity="0.35"/>
<path d="M447.307 283.291L446.885 283.388L446.582 283.694L446.834 284.097L447.205 284.124L447.628 283.818L447.728 283.415L447.307 283.291Z" fill="#9EC3D2" fill-opacity="0.35"/>
<path d="M357.888 287.566L357.524 287.536L355.117 289.157L354.863 289.728L354.534 289.758L354.68 291.019L353.841 292.701L354.753 293.331L355.921 293.392L356.723 294.354L357.889 294.384L357.852 295.104H358.288L358.762 293.783L358.323 293.333L358.433 292.493L359.344 292.432L359.235 290.48L357.192 289.94L356.719 288.889L357.888 287.566Z" fill="#9EC3D2" fill-opacity="0.35"/>
<path d="M351.465 288.317L351.711 288.71L351.911 288.927L351.642 289.578L351.13 289.283L350.292 288.656V288.242L351.465 288.317Z" fill="#9EC3D2" fill-opacity="0.35"/>
<path d="M352.078 282.822V283.006L353.018 283.02L353.462 282.809L353.53 282.963L354.452 283.147L355.272 283.752L355.085 283.963L355.119 284.203L355.802 284.343L356.486 284.09L356.793 283.837L356.35 283.654L354.062 282.556L353.26 282.486L352.078 282.822Z" fill="#9EC3D2" fill-opacity="0.35"/>
<path d="M381.533 286.232L381.198 286.39L381.438 286.547L381.726 286.429L381.533 286.232ZM382.358 286.55L382.14 286.709L382.295 286.944L382.67 286.807L382.358 286.55ZM381.88 286.996L381.599 287.133L381.901 287.464L382.139 287.361L381.88 286.996Z" fill="#9EC3D2" fill-opacity="0.35"/>
<path d="M409.034 277.468L409.251 277.597L408.578 278.118L408.257 278.109L408.018 277.972L408.05 277.716L408.537 277.691L409.034 277.468Z" fill="#9EC3D2" fill-opacity="0.35"/>
<path d="M399.355 270.974H400.138L400.557 271.219L401.332 270.692L400.58 270.253L399.834 269.958L399.323 270.033L398.631 270.397L399.355 270.974Z" fill="#9EC3D2" fill-opacity="0.35"/>
<path d="M396.301 268.521L396.931 268.438V268.074L397.46 268.003L397.749 268.242L398.055 268.269L398.532 268.1L398.958 268.198L399.332 268.464L399.383 269.459L399.758 269.866L399.265 269.922L398.447 270.342L398.516 270.483L399.248 271.043L399.196 271.323L398.516 271.603L397.885 271.617L397.732 271.883H397.409L397.255 271.603L396.693 271.49L396.675 271.028L396.391 270.9L396.414 270.589L396.331 270.367L395.926 270.062L396.011 269.585L396.452 269.417L396.301 268.521Z" fill="#9EC3D2" fill-opacity="0.35"/>
<path d="M397.295 266.156L396.562 266.819L396.536 267.251L396.87 267.963L397.393 267.882L397.328 267.3L397.688 266.971L397.681 266.713L397.427 266.174L397.295 266.156ZM397.675 267.372L397.457 267.411V267.675L397.688 267.821L397.892 267.779L397.842 267.528L397.675 267.372ZM398.355 267.121L398.16 267.159L397.945 267.321L398.037 267.647L398.3 267.732L398.028 267.821L397.976 267.936H398.386L398.509 267.752L398.351 267.689L398.402 267.528L398.59 267.327L398.539 267.153L398.355 267.121Z" fill="#9EC3D2" fill-opacity="0.35"/>
<path d="M414.029 287.82L413.928 288.305L414.628 288.296L414.639 287.583L414.383 287.455L414.029 287.82Z" fill="#9EC3D2" fill-opacity="0.35"/>
<path d="M362.365 285.415L362.209 285.685L362.397 285.89L362.63 285.724L362.365 285.415Z" fill="#9EC3D2" fill-opacity="0.35"/>
<path d="M359.545 284.774L358.61 284.274L358.02 284.104L357.902 285.026L358.02 285.018L358.176 285.262L358.379 285.07L358.971 284.941L359.485 285.031L359.545 284.774Z" fill="#9EC3D2" fill-opacity="0.35"/>
<path d="M396.785 277.129L396.064 276.931L393.064 277.392L392.41 277.797L392.809 279.482L391.617 279.521L390.899 280.464L389.191 280.799L389.196 281.485L394.823 285.001L395.782 285.067L398.982 283.024L398.662 282.695L398.061 282.628L397.701 282.135V280.092L397.46 279.894L397.501 279.367L396.861 278.84L396.782 278.28L397.061 278.115L396.94 277.521L396.785 277.129Z" fill="#9EC3D2" fill-opacity="0.35"/>
<path d="M353.73 292.774L352.894 293.199L352.834 293.829L352.667 294.035L353.193 294.448L352.965 294.651L353.018 295.171L353.96 295.355L355.386 293.976L355.382 293.495L354.698 293.459L353.73 292.774Z" fill="#9EC3D2" fill-opacity="0.35"/>
<path d="M347.506 293.111L347.396 293.508L347.193 293.675L347.332 293.881L347.691 293.765L347.862 293.521L347.753 293.265L347.506 293.111Z" fill="#9EC3D2" fill-opacity="0.35"/>
<path d="M404.539 265.025L403.55 264.996L402.923 265.309L402.914 265.542L403.32 265.855L404.584 266.03L404.539 265.025Z" fill="#9EC3D2" fill-opacity="0.35"/>
<path d="M402.428 265.149L402.161 265.222L402.428 265.26L402.55 265.375L402.695 265.233L402.55 265.03L402.428 265.149ZM402.542 265.441L402.161 265.58L402.03 265.766L402.161 265.886L402.644 265.74L402.877 265.615L402.542 265.441Z" fill="#9EC3D2" fill-opacity="0.35"/>
<path d="M405.274 279.377L405.746 279.387L406.665 279.595L407.101 279.605L407.642 279.236H407.894L408.354 279.443H408.936L409.04 279.438L409.407 280.301L409.512 280.58L409.609 280.997L409.435 281.101L409.137 280.979L408.792 280.06L408.481 280.042L408.459 280.353L408.665 280.893L410.321 282.568L410.356 283.287L409.874 283.742L405.344 283.7L405.274 279.377Z" fill="#9EC3D2" fill-opacity="0.35"/>
<path d="M411.419 286.833L411.375 285.982L412.075 285.315L412.264 285.434L412.609 286.375L414.263 287.381L413.962 287.683L412.752 286.833L411.419 286.833Z" fill="#9EC3D2" fill-opacity="0.35"/>
<path d="M392.276 273.881H390.024L389.57 273.714L389.351 273.727L389.086 274.177L389.18 274.641L390.041 274.706L390.15 275.001L389.775 276.727L389.791 277.036L390.4 277.306L391.104 277.345L392.51 277.062L393.197 276.355L393.213 275.634L394.433 274.733L394.494 274.335L393.385 274.322L392.276 273.881Z" fill="#9EC3D2" fill-opacity="0.35"/>
<path d="M386.491 280.917L386.182 281.063L386.325 281.182L386.491 280.917ZM385.417 280.945L385.034 281.024L385.225 281.261H385.512L385.417 280.945ZM384.505 280.708L384.265 280.906L384.601 281.143L384.792 280.787L384.505 280.708ZM394.527 275.644L394.246 275.722L394.308 275.929H394.714L394.886 275.774L394.527 275.644Z" fill="#9EC3D2" fill-opacity="0.35"/>
<path d="M410.144 289.296L411.43 286.957L412.707 286.963L413.84 287.767L413.76 288.43H414.638L414.728 288.828L416.149 289.523L417.025 289.559L415.359 291.021L413.071 291.598H412.504L411.494 290.893L411.094 290.756L410.321 289.825L409.81 289.83L409.75 289.403L410.144 289.296Z" fill="#9EC3D2" fill-opacity="0.35"/>
<path d="M402.599 261.167L402.965 261.298L403.191 261.644L402.965 261.884L401.831 262.898L401.636 263.432L401.896 264.206L402.77 264.74L403.937 264.287L404.876 264.18L405.751 263.032L405.102 261.777L404.485 260.576L404.583 259.802L404.195 259.749L404.094 259.184L403.57 258.487L402.991 258.814L402.763 259.575L402.148 259.274L401.293 259.103L401.102 259.285L401.43 259.528L402.029 259.519L402.512 260.156L402.599 261.167Z" fill="#9EC3D2" fill-opacity="0.35"/>
<path d="M367.467 317.657L367.003 317.615L366.54 317.869L366.876 318.166L367.467 317.657ZM367.931 317.466L367.777 317.869L367.338 318.186L367.365 318.292L368.112 318.058L368.421 317.74L367.931 317.466Z" fill="#9EC3D2" fill-opacity="0.35"/>
<path d="M394.403 270.084L394.013 270.162L393.232 270.856L392.997 270.869L392.684 270.689L392.481 270.728L392.326 271.127L391.184 271.152L391.216 271.359L391.997 271.783L392.904 272.375L392.888 273.083L392.404 273.777L393.451 274.189L394.515 274.214L394.844 273.905L395.515 273.918L395.702 274.06L396.374 274.021L396.718 273.66L396.28 273.236L396.248 272.966L396.342 272.67L396.123 272.413L395.748 272.502L395.701 272.271L396.53 271.525V271.074L396.05 270.946L395.757 270.781L394.403 270.084Z" fill="#9EC3D2" fill-opacity="0.35"/>
<path d="M366.439 290.746L367.473 291.273L366.932 292.15L366.736 292.352L366.162 292.083L366.178 291.136L366.439 290.746ZM420.372 302.379L419.969 302.401L419.943 302.688L420.211 302.733L420.614 302.579L420.372 302.379ZM415.637 298.326L415.771 298.57H415.987L416.094 298.26L415.637 298.326ZM362.895 286.158L362.707 286.3L362.847 286.531L363.112 286.467L362.895 286.158ZM397.483 274.164L397.138 274.447L397.106 274.705L397.387 274.846L397.497 274.833L397.558 274.459L397.483 274.164ZM361.928 285.197L361.663 285.286L361.757 285.478L362.068 285.312L362.006 285.26L361.928 285.197Z" fill="#9EC3D2" fill-opacity="0.35"/>
<path d="M398.995 292.309L398.973 292.669L397.977 292.651L397.367 293.615L398.801 294.895L399.155 294.652L399.145 294.401L398.901 294.309V294.132L399.451 293.848L399.938 294.15L400.478 294.158L400.467 292.644L399.613 292.611L399.602 292.293L398.995 292.309Z" fill="#9EC3D2" fill-opacity="0.35"/>
<path d="M391.88 265.807L391.556 266.207L391.685 266.367H392.431V266.634L392.236 266.848L392.366 267.408L392.786 268.075L393.109 268.689L393.627 268.849L393.853 269.17L393.821 269.463L393.498 269.623L393.466 269.756L393.692 269.863L393.498 270.076L393.044 270.236L392.169 270.157L390.807 270.664L390.353 270.477L391.65 269.864L391.488 269.784L390.807 269.731L391.228 269.224L391.293 268.797L391.844 268.743L391.747 267.916L391.098 267.89L390.904 267.704L390.935 267.09L390.547 267.116L390.935 266.049L391.649 265.621L391.88 265.807Z" fill="#9EC3D2" fill-opacity="0.35"/>
<path d="M390.52 267.596L389.936 267.649L389.905 268.077L390.293 268.29L390.714 268.211L390.877 267.971L390.52 267.596Z" fill="#9EC3D2" fill-opacity="0.35"/>
<path d="M411.199 273.76L411.776 274.376L412.498 274.648L412.941 274.646L413.703 274.478L413.894 274.234L411.641 273.545L411.199 273.76Z" fill="#9EC3D2" fill-opacity="0.35"/>
<path d="M391.565 290.06L391.764 290.44L392.279 291.101L392.565 291.092L393.346 290.729L393.291 288.666L392.687 288.521L391.841 288.54L391.565 290.06Z" fill="#9EC3D2" fill-opacity="0.35"/>
<path d="M369.796 251.511L369.556 251.825L369.989 252.178L369.796 252.532L370.422 253.199L371.19 253.003L372.199 252.925L373.353 253.946L374.122 255.633L373.498 256.693L374.362 256.575L374.843 256.811L374.89 257.322L373.834 257.36L374.41 257.831L375.131 257.95L373.546 259.676L373.354 260.736L373.69 261.6L373.449 262.111L373.882 263.21L374.698 263.956L374.939 263.917L375.467 263.799L375.514 264.427L375.85 264.82L376.474 264.781L376.955 263.328L378.396 261.876L380.559 261.169L381.904 259.795L382.527 260.03H383.824L384.88 259.167L386.178 258.735L386.322 258.068L385.506 257.479L384.785 257.283L384.4 256.458L385.314 256.027L386.756 256.655L387.236 256.223L386.468 255.869L388.102 254.063L387.814 253.278L387.045 253.239L387.333 252.533L388.294 252.179L390.264 250.766L389.689 250.256L387.478 250.413L386.324 251.356L386.998 250.139L386.229 249.981L385.796 250.609L385.173 250.178L383.442 250.335L383.923 249.707L386.757 249.629L386.036 248.843L382.962 248.373L381.713 248.53L381.761 249.041L380.464 248.688L380.511 248.334L379.598 248.491L379.405 248.884L380.366 249.159L379.358 249.748L378.637 249.081L377.628 248.845L377.483 249.473H376.474L376.088 248.806L374.503 248.61L373.639 248.964L373.591 249.434L372.487 249.316L371.814 249.551L371.862 250.101V250.376L370.613 250.572L370.037 250.259L369.651 250.768L370.228 251.279L371.429 251.161L371.524 251.476L370.611 251.83L369.795 251.511H369.796Z" fill="#9EC3D2" fill-opacity="0.35"/>
<path d="M373.641 257.636L373.929 257.99L373.784 258.422H373.496L373.111 258.068L373.206 257.793L373.641 257.636ZM385.652 256.655L386.468 256.851L386.42 257.401L385.556 257.047L385.364 256.851L385.652 256.655Z" fill="#9EC3D2" fill-opacity="0.35"/>
<path d="M384.949 287.358L384.926 287.519L386.148 287.504L386.21 287.355L386.184 287.205L385.832 287.322L384.949 287.358Z" fill="#9EC3D2" fill-opacity="0.35"/>
<path d="M385.572 288.745L386.11 289.42L386.809 288.924L387.527 288.898L388.124 289.546L388.631 289.819L388.822 289.516L388.991 289.438L388.979 288.771L388.642 287.98L387.606 288.074L386.325 287.99L386.319 288.259L385.572 288.745Z" fill="#9EC3D2" fill-opacity="0.35"/>
<path d="M397.308 291.556L397.227 291.84L397.47 291.948L397.704 291.806L397.623 291.512L397.308 291.556ZM398.041 292.318L398.03 292.519L398.832 292.552L398.822 292.325L398.041 292.318Z" fill="#9EC3D2" fill-opacity="0.35"/>
<path d="M402.585 275.7L402.566 275.893L403.384 276.229L403.775 276.352L403.57 276.528L403.114 276.566L403.048 276.735L403.206 277.025L403.717 277.247L403.94 277.263L403.968 276.765L404.302 276.436L403.39 275.555L403.511 275.256L403.724 275.249L404.049 275.463L404.254 275.379L404.32 275.08L405.082 275.169L405.314 274.628L404.915 274.858L403.744 274.835L402.982 275.157L402.585 275.7Z" fill="#9EC3D2" fill-opacity="0.35"/>
<path d="M404.361 277.576L404.648 277.583L404.769 277.729H405.188L405.467 277.646L405.561 277.738L405.375 277.937L404.557 277.96L404.408 277.8L404.251 277.723L404.361 277.576Z" fill="#9EC3D2" fill-opacity="0.35"/>
<path d="M347.49 286.374L348.538 287L349.594 285.927L349.414 285.705L349.053 285.695V285.066L348.783 284.932L347.965 285.131L348.278 285.72L347.49 286.374Z" fill="#9EC3D2" fill-opacity="0.35"/>
<path d="M385.251 288.252L385.498 288.652L386.192 288.164L386.199 288.014L385.381 287.917L385.251 288.252Z" fill="#9EC3D2" fill-opacity="0.35"/>
<path d="M363.422 289.638L364.697 290.582L364.19 291.062L364.149 291.346L364.816 291.907L364.799 292.447L363.64 292.808L362.946 292.041L363.095 291.12L362.798 290.435L363.422 289.638Z" fill="#9EC3D2" fill-opacity="0.35"/>
<path d="M349.728 285.978L351.361 285.927L351.845 286.398L351.543 286.341L350.962 286.361L350.202 286.945L349.877 287.536L349.663 287.443L349.661 286.796L349.191 286.539L349.728 285.978Z" fill="#9EC3D2" fill-opacity="0.35"/>
<path d="M400.626 272.461L400.002 272.881H399.369L399.294 273.245L399.583 273.307L399.729 273.131L399.956 273.294L400.138 273.814L401.387 274.29L401.51 274.175L400.244 273.106L400.373 272.912L401.577 272.874L401.698 272.56L400.914 272.579L400.626 272.461Z" fill="#9EC3D2" fill-opacity="0.35"/>
<path d="M357.381 284.043L357.988 284.095L357.916 284.705L357.856 285.025L357.147 284.994L357.022 285.148L356.805 285.135L356.727 284.802L357.475 284.751L357.429 284.404L357.086 284.289L357.381 284.043Z" fill="#9EC3D2" fill-opacity="0.35"/>
<path d="M400.824 271.658L400.619 271.92L400.635 272.322L400.962 272.459L401.967 272.483L403.368 271.519L403.375 271.305L403.223 271.243L402.211 271.619L400.824 271.658Z" fill="#9EC3D2" fill-opacity="0.35"/>
<path d="M440.708 290.135L440.659 290.464L441.859 292.111H442.208L444.708 295.529L445.709 295.612L446.208 294.418L445.408 294.006L445.258 293.348L440.708 290.135ZM452.555 294.689L452.954 295.089L452.694 295.69V295.804H453.284L453.493 294.302L453.684 294.346L454.03 295.718L454.36 295.79L454.673 295.203L454.36 294.317L454.1 293.931L454.917 293.445L454.726 293.229L453.945 293.644H453.736L453.355 293.186L453.477 292.986L454.12 292.728L455.092 292.971L455.387 292.956L456.117 292.399L455.822 292.157L455.145 292.585H454.71L454.051 292.328L453.583 292.343L453.062 293.029L452.731 294.215L452.555 294.689ZM456.912 292.002L456.582 292.659L457.103 293.217H457.276L457.502 292.845L457.624 292.717L457.398 292.516L457.068 292.416L456.912 292.002ZM457.937 294.161L457.225 294.289L457.017 294.476L457.19 294.718L457.658 294.575L457.952 294.433L458.387 294.719L458.578 294.59L458.232 294.246L457.937 294.161ZM446.131 296.019L445.645 296.29L445.749 296.518L447.295 296.804L448.076 296.918L448.406 297.204L449.291 297.262L449.708 297.547L450.09 297.475L450.438 297.218L449.795 296.976L449.24 296.59L447.798 296.304L446.131 296.019ZM451.184 297.262L450.803 297.434L451.029 297.634L451.583 297.463L451.184 297.262ZM451.843 297.133L451.912 297.405L452.311 297.49L452.467 297.333L452.294 297.118L451.843 297.133ZM452.799 297.848L452.313 297.906L452.748 298.206H453.094L452.799 297.848ZM452.937 297.376L452.832 297.548L453.613 297.647L454.221 297.362L453.875 297.276L453.32 297.405L453.111 297.262L452.937 297.376ZM455.49 297.477L454.587 298.092L454.674 298.25L455.055 298.192L455.506 297.848L456.391 297.748L456.218 297.506L455.49 297.477ZM460.046 293.278L459.31 293.346L458.837 293.629L459.033 293.953L459.835 294.074V294.195L459.328 294.532L459.574 295.232L459.819 295.245L460.031 294.558H460.424L460.588 295.231L462.501 296.524L462.551 297.535L463.204 298.114L463.499 298.101L463.565 294.532L462.453 293.9L461.405 294.479L461.029 294.668L460.407 294.344L460.391 293.321L460.046 293.278ZM451.168 291.121L450.76 292.374L448.546 292.985L447.883 292.35L447.562 292.422L448.163 294.316L449.062 294.399L450.261 294.77V295.141L450.811 295.059L451.611 294.153V293.412L452.062 292.672L452.562 292.753L451.961 291.724L451.869 291.061L451.168 291.121Z" fill="#9EC3D2" fill-opacity="0.35"/>
<path d="M390.712 268.33L390.551 269.196L389.125 269.624H388.671L388.348 269.437V269.277L389.061 268.903L388.867 268.582L388.899 268.129L389.516 268.155L389.799 267.612L389.761 268.094L390.24 268.405L390.712 268.33Z" fill="#9EC3D2" fill-opacity="0.35"/>
<path d="M409.407 278.655L409.128 279.381L409.49 280.252L409.905 278.98V278.707L409.407 278.655Z" fill="#9EC3D2" fill-opacity="0.35"/>
<path d="M431.609 289.477L432.418 289.153L432.899 287.732L432.878 285.989L435.63 283.56V282.984L436.197 282.804L436.176 282.138L435.565 281.166L435.915 280.645L436.68 281.221L437.662 281.257V281.581L437.357 281.851L437.422 281.995L437.947 282.012L438.056 282.497H438.21L438.604 281.921L438.8 280.411L439.456 280.032L439.477 279.511L439.215 279.097L438.8 279.08L437.175 279.957L437.278 280.522L436.136 280.519L435.733 280.116L435.514 280.139L435.588 280.699L433.12 280.555L431.591 279.998L431.509 279.312L430.489 278.795L430.477 277.731L429.778 277.077L428.17 277.202L428.345 277.774L429.132 278.295L427.77 280.574L426.858 280.63L426.708 280.905L427.606 281.583L427.562 282.269L426.645 282.257L426.547 282.598L427.308 282.571L427.33 282.841L426.784 283.075L427.133 283.615L427.81 283.795L428.225 283.544L428.422 283.095L428.662 283.006L428.947 283.239L428.86 283.815L428.664 284.085L428.708 284.553L431.609 289.477Z" fill="#9EC3D2" fill-opacity="0.35"/>
<path d="M412.762 276.774L412.487 277.887L411.345 278.663L411.417 279.03L412.532 279.092L414.308 280.273L415.301 280.25L415.327 279.977L415.691 279.658L416.2 279.893L416.268 279.841L415.283 278.771L414.817 278.748L414.197 278.097L414.32 277.618L414.509 277.598L414.575 277.385L413.73 276.659L412.762 276.774Z" fill="#9EC3D2" fill-opacity="0.35"/>
<path d="M413.706 275.751L413.49 275.935L413.511 276.225L413.779 276.533L414.731 277.384L414.586 277.725H414.421L414.338 278.066L414.877 278.629L415.374 278.664L416.368 279.788L416.926 279.823L417.361 280.079L417.382 280.59L419.101 281.408H419.743L420.137 281.135L420.634 281.118L420.924 281.664L422.781 281.875L422.836 281.317L423.45 281.135L423.479 280.936L422.989 280.39L421.899 279.674L422.471 279.248L422.431 279.06L421.714 278.969L421.41 276.991L421.374 276.536L419.429 275.928L418.567 276.087L418.084 276.571L417.656 276.547L417.533 276.633L416.58 276.582L415.379 275.866L414.932 275.466L414.727 275.506L414.357 275.852L413.706 275.751Z" fill="#9EC3D2" fill-opacity="0.35"/>
<path d="M384.855 261.22L384.509 261.06L384.042 261.301L383.641 261.604L383.652 261.773L384.171 261.826L384.139 262.129L383.956 262.281L384 262.379L384.519 262.407V262.897L385.267 263.004L385.71 263.21L386.208 263.227L387.064 262.879L387.724 262.166L387.735 261.683L387.334 261.406L386.998 261.174L386.846 261.263L386.618 261.504L386.359 261.477L386.099 261.244L385.763 261.27L385.275 261.601L384.982 261.859L384.819 261.744L384.808 261.458L384.971 261.368L384.855 261.22Z" fill="#9EC3D2" fill-opacity="0.35"/>
<path d="M396.5 272.724L396.391 272.95L396.421 273.197L396.843 273.6L397.507 273.581L398.973 274.973L399.889 275.19L400.43 275.607L400.558 276.558L400.848 276.42L401.1 275.902L401.037 275.529L401.467 275.497L401.529 275.287L400.319 274.813L399.17 273.891L398.713 273.339L398.601 272.815L399.186 272.701L399.036 272.356L398.677 272.109L398.368 272.097L397.937 272.194L397.53 272.658L397.285 272.791L396.905 272.601L396.5 272.724Z" fill="#9EC3D2" fill-opacity="0.35"/>
<path d="M400.064 276.483L399.808 276.371L398.933 276.483L398.963 276.677L399.749 277L399.868 277.105L400.074 277.13L400.064 276.483ZM397.435 275.091L396.967 275.285L397.029 276.031L397.404 276.083L397.684 275.864V275.157L397.435 275.091Z" fill="#9EC3D2" fill-opacity="0.35"/>
<path d="M355.273 284.651L354.658 284.778V284.918L355.017 285.087H355.393L355.631 284.862L355.273 284.651Z" fill="#9EC3D2" fill-opacity="0.35"/>
<path d="M410.04 279.048L409.605 280.286L409.585 280.476H410.269L411.035 279.924L411.054 279.715L410.741 279.453L411.301 279.074L411.22 278.721L411.066 278.751L410.6 279.024L410.04 279.048Z" fill="#9EC3D2" fill-opacity="0.35"/>
<path d="M454.975 275.53L454.687 275.767L454.806 276.101L455.058 276.115L455.228 276.839L455.431 277.019L455.786 276.755L455.817 275.957L455.408 275.602L454.975 275.53ZM456.482 274.861L455.938 275.221L455.818 275.676L456.188 275.884L456.725 275.425L456.8 274.913L456.482 274.861ZM455.854 274.167L454.991 274.974V275.362L455.523 275.31L456.358 274.71L456.916 274.626L457.052 274.756L457.055 275.153L457.196 275.362H457.452L457.813 275.002L457.965 274.528L458.691 274.514L459.401 273.818L459.03 272.663L458.861 272.051L459.232 271.801L458.387 270.759L458.194 270.634L457.811 270.758L457.713 271.19V271.538L457.915 271.733L457.983 272.651L457.46 273.18L457.156 273.027L456.919 273.458L456.868 273.861L457.054 274.098L456.935 274.278L456.546 274.014H456.276L456.04 274.125L455.854 274.167ZM457.308 267.88L457.038 268.076L457.174 268.493L457.411 268.688L457.393 269.327L457.089 269.424L456.853 269.855L457.545 270.634L458.001 270.508L458.086 270.313L457.596 269.952L457.9 269.632L458.221 269.673L458.922 270.058L458.998 269.627L459.331 269.129L459.797 268.743L459.293 268.555L459.1 268.255L458.847 268.393L458.628 268.615L458.155 268.532L457.665 268.267L457.308 267.88ZM459.857 267.449L459.384 267.992L459.417 268.256L459.654 268.172L460.211 267.602L459.857 267.449ZM460.483 266.656L460.313 267.032L460.331 267.281L460.619 267.128L460.889 266.683V266.517L460.483 266.656Z" fill="#9EC3D2" fill-opacity="0.35"/>
<path d="M410.381 291.427L410.851 292.176L410.287 293.142L410.213 293.435L413.028 294.858L413.9 293.737L413.459 293.444L413.45 291.968L414.003 291.475L413.121 291.714L412.455 291.721L411.413 291.002L411.084 290.887L410.475 290.933L410.368 291.081L410.381 291.427Z" fill="#9EC3D2" fill-opacity="0.35"/>
<path d="M425.572 273.045L425.517 273.411L425.561 273.636L427.099 274.058L425.749 274.502L425.595 274.398L425.304 274.551L425.318 274.635L425.473 274.693L426.42 274.713L426.901 274.594L427.518 273.959L428.29 274.069L429.221 273.015L426.73 272.737L426.385 273.42L425.95 273.039L425.572 273.045Z" fill="#9EC3D2" fill-opacity="0.35"/>
<path d="M443.889 287.522L444.611 288.152L445.956 287.338L446.074 286.053L445.38 286.445L445.019 286.28L444.529 286.227L444.256 286.069L444.123 286.075L443.764 286.556L443.823 286.779L444.186 286.945L444.142 287.396L443.889 287.522Z" fill="#9EC3D2" fill-opacity="0.35"/>
<path d="M415.126 297.883L415.207 298.103L415.557 298.149L415.691 297.861L415.126 297.883Z" fill="#9EC3D2" fill-opacity="0.35"/>
<path d="M450.567 272.332L450.892 272.443L450.991 273.373L451.636 273.404L452.244 272.822L452.034 272.669L452.058 272.045L452.616 271.493L452.332 271.074L452.518 270.901L452.62 270.468L452.297 270.348L452.021 270.462L451.68 271.308L451.129 271.269L450.491 271.884L450.567 272.332Z" fill="#9EC3D2" fill-opacity="0.35"/>
<path d="M452.345 272.899L453.437 273.627L453.623 274.332L453.585 274.71L453.051 275.201L452.592 275.221L452.071 274.301L451.872 273.862L452.083 273.729L452.033 273.545L451.774 273.451L452.345 272.899Z" fill="#9EC3D2" fill-opacity="0.35"/>
<path d="M416.116 279.97L415.718 279.794L415.442 280.02L415.472 280.474L416.114 280.674L416.116 279.97Z" fill="#9EC3D2" fill-opacity="0.35"/>
<path d="M414.95 271.516L415.674 271.264L416.483 271.24L416.539 272.251H416.066L415.704 272.733L416.177 273.376L416.875 273.698L416.938 274.066L417.195 273.997L417.432 273.767L417.822 273.837L418.018 274.159H418.52V273.746L418.212 273.011L418.073 272.414L418.965 272.092L420.164 272.253L420.917 272.872L422.618 272.735L423.568 273.837L424.683 273.883L424.99 273.47L425.381 273.4L425.436 272.941L426.021 272.918L426.329 273.217L426.636 272.62L429.285 272.919L429.73 272.437L428.977 271.679L429.981 269.889L430.79 269.934L431.348 268.833L430.233 268.741L429.592 268.236L427.825 268.403L425.549 266.605L424.746 267.187L422.314 266.285L419.329 267.479L419.246 268.328L419.944 268.993L418.584 269.621L416.819 269.59L416.449 269.146L415.065 269.084L413.755 269.773L413.726 270.715L414.95 271.516Z" fill="#9EC3D2" fill-opacity="0.35"/>
<path d="M443.003 282.246L442.576 282.423L442.221 283.269L442.814 283.887L442.715 284.57L442.814 284.603L443.802 284.211L445.127 285.421L445.095 286.183L445.383 286.311L446.095 285.838L446.036 285.465L443.981 283.869L444.001 283.625L444.257 283.479L444.079 283.072L443.229 282.958L443.003 282.246Z" fill="#9EC3D2" fill-opacity="0.35"/>
<path d="M409.563 277.843L409.573 278.125L409.429 278.553L409.927 278.587L409.959 277.981L409.563 277.843Z" fill="#9EC3D2" fill-opacity="0.35"/>
<path d="M362.879 286.736L362.754 286.954L362.957 287.133L363.222 287.018L362.879 286.736Z" fill="#9EC3D2" fill-opacity="0.35"/>
<path d="M433.298 288.76L433.343 289.153L433.387 289.439L433.127 289.475L433.258 290.118L433.648 290.297L434.254 290.011L434.082 289.334L434.126 289.084L433.562 288.656L433.298 288.76Z" fill="#9EC3D2" fill-opacity="0.35"/>
<path d="M387.295 290.369L389.235 291.428L389.189 290.626L388.602 290.061L388.03 289.647L387.295 290.369Z" fill="#9EC3D2" fill-opacity="0.35"/>
<path d="M406.242 305.703L406.781 305.363L407.036 305.372L407.343 305.685L407.312 305.999L406.794 306.155V306.277L406.223 306.251L406.086 305.911L406.242 305.703Z" fill="#9EC3D2" fill-opacity="0.35"/>
<path d="M402.409 267.018L401.97 267.079L402.005 267.417L402.691 267.459L402.951 267.633L403.019 267.935L403.23 268.176L403.857 268.155L404.458 267.529L404.423 267.158L403.292 267.013L402.409 267.018Z" fill="#9EC3D2" fill-opacity="0.35"/>
<path d="M395.926 270.751L396.081 270.865L396.261 270.878L396.301 270.589L396.249 270.426L395.999 270.523L395.926 270.751Z" fill="#9EC3D2" fill-opacity="0.35"/>
<path d="M404.592 266.138L403.292 265.965L403.07 266.436L402.695 266.528L402.499 266.332L402.303 266.029L402.09 266.156L401.97 266.68V266.965L402.428 266.902L403.382 266.916L404.53 267.091L404.99 266.981L404.964 266.56L404.592 266.138Z" fill="#9EC3D2" fill-opacity="0.35"/>
<path d="M397.875 280.094L398.151 280.057L398.232 279.537H398.37L398.933 278.781L400.324 279.112L400.703 279.594L402.071 280.105L402.783 279.859L402.713 279.614L402.402 279.368L402.438 279.198L402.943 278.848H403.943L404.323 279.264L405.127 279.359L405.231 284.686L404.634 284.667L401.026 283.134L400.636 283.314L399.153 283.011L398.751 282.576L398.164 282.51L397.866 282.075L397.875 280.094Z" fill="#9EC3D2" fill-opacity="0.35"/>
<path d="M392.263 277.82H390.223L389.824 278.545L388.903 278.908L388.142 280.588L386.662 281.313L384.583 284.113L386.623 284.08L386.703 283.257H387.222V282.136H389.022L389.063 280.686L390.784 280.357L391.504 279.401L392.624 279.368L392.263 277.82Z" fill="#9EC3D2" fill-opacity="0.35"/>
<path d="M405.066 271.385L405.614 272.074L405.568 272.463L405.764 272.47L406.228 271.828L405.67 271.262L405.354 271.155L405.066 271.385Z" fill="#9EC3D2" fill-opacity="0.35"/>
<path d="M401.906 273.941L401.647 274.24L401.721 274.423L402.028 274.469L402.27 274.2L401.906 273.941Z" fill="#9EC3D2" fill-opacity="0.35"/>
<path d="M417.708 298.127L417.331 298.858L416.686 299.787L415.557 299.853L415.073 300.318L415.154 301.736L414.455 302.401L414.535 303.53L415.128 304.083L415.827 304.017L416.527 303.595L416.366 302.931L417.98 300.65L417.656 300.362L417.98 299.809L418.329 299.897L418.437 299.676L418.113 298.547L417.925 298.082L417.708 298.127Z" fill="#9EC3D2" fill-opacity="0.35"/>
<path d="M403.329 274.316L402.734 274.476L402.762 274.889L402.902 275.035L403.609 274.767L403.329 274.316Z" fill="#9EC3D2" fill-opacity="0.35"/>
<path d="M387.169 286.998L387.714 286.693L390.739 286.679L390.039 282.702L390.837 282.683L394.701 285.093L395.22 285.154L395.024 286.493L392.595 286.674L390.721 287.818L390.379 288.6L389.077 288.645L388.745 287.864L387.747 287.922L387.785 287.666L387.169 286.998Z" fill="#9EC3D2" fill-opacity="0.35"/>
<path d="M441.938 288.125L441.448 287.484L441.803 287.077L441.468 286.573L441.151 286.524L441.091 285.678L440.618 284.928L440.48 285.107L440.164 285.546L439.768 285.595L439.57 285.383L439.471 284.813L439.174 284.357L437.965 283.425L438.262 283.265L438.317 282.591L438.759 281.985L438.95 280.476L439.59 280.119L439.611 279.569L439.994 279.673L440.598 280.388L440.15 281.173L440.453 281.789L441.199 282.029L441.336 282.701L442.339 282.828L442.062 283.219L440.797 283.627L440.659 284.294L441.588 285.27L441.627 285.791L441.41 285.97L441.429 286.133L442.122 286.963L442.142 287.825L441.938 288.125Z" fill="#9EC3D2" fill-opacity="0.35"/>
<path d="M432.107 268.852L433.136 267.738L434.371 268.204L435.21 268.388L436.238 267.617L435.54 267.196L436 266.666L437.371 267.062L437.846 267.699L438.704 267.718L439.153 267.445L440.077 267.414L440.279 267.695L441.814 267.758L442.786 266.948L444.13 267.063L444.052 268.167L444.641 268.276L445.363 268.008L446.129 268.317L446.111 268.473L445.556 268.486L444.978 269.477L444.529 269.513L442.784 271.377L441.001 272.02L439.886 272.09L438.96 271.602L437.776 272.119L436.61 271.823L436.28 271.132L434.071 271.004L432.941 269.438L432.391 269.409L432.107 268.852Z" fill="#9EC3D2" fill-opacity="0.35"/>
<path d="M384.597 284.228L384.982 284.64L384.902 286.419L385.463 286.089L385.862 286.023L386.422 286.187L387.062 286.912L387.662 286.583L390.583 286.55L389.862 282.563L390.636 282.56L389.194 281.658L389.196 282.244L387.371 282.246L387.362 283.365L386.837 283.363L386.77 284.189L384.597 284.228Z" fill="#9EC3D2" fill-opacity="0.35"/>
<path d="M400.094 277.559L399.799 277.608L399.81 277.875L400.075 277.948L400.193 277.867L400.094 277.559Z" fill="#9EC3D2" fill-opacity="0.35"/>
<path d="M421.367 301.891L421.099 302.178L421.152 302.489L421.717 302.112L421.367 301.891Z" fill="#9EC3D2" fill-opacity="0.35"/>
<path d="M429.033 290.596L429.086 290.972L429.381 291.06L429.434 290.728L429.033 290.596ZM429.409 291.392L429.383 291.857L429.598 291.945L429.787 291.635L429.409 291.392ZM429.464 292.301L429.275 292.455L429.491 292.61L429.759 292.455L429.464 292.301Z" fill="#9EC3D2" fill-opacity="0.35"/>
<path d="M409.732 299.062L410.282 299.532L410.271 300.132L410.377 300.386L411.107 299.742L411.022 298.923L410.631 298.679L410.284 297.242L409.681 297.225L409.955 298.26L409.732 299.062Z" fill="#9EC3D2" fill-opacity="0.35"/>
<path d="M337.35 276.831L338.203 279.027L337.806 279.209L337.85 279.645L338.601 280.117V280.991L339.528 281.718L339.131 279.572L338.601 278.153L338.733 277.171L339.175 277.207L339.352 277.535L339.175 278.371L341.472 282.044V283.354L343.327 285.135L345.359 285.899L346.198 285.499L347.391 286.299L348.098 285.717L347.789 285.061L348.805 284.808L349.114 284.953L349.423 284.699H349.909L350.792 283.426L350.35 283.098L348.627 283.426L348.23 284.371L347.214 284.517L346.021 284.117L345.491 282.736L345.892 280.993L345.072 280.575L344.682 278.901L344.355 278.787L343.758 279.283L343.072 278.984L342.804 277.868L340.088 277.635L338.686 276.773L337.35 276.83L337.35 276.831Z" fill="#9EC3D2" fill-opacity="0.35"/>
<path d="M442.516 289.829L442.871 290.48L442.95 291.326L443.425 291.928L444.467 292.443L444.672 292.311L444.971 292.262L444.927 291.943L444.551 291.196L444 290.238L443.953 290.406L443.289 290.381L442.812 289.821L442.516 289.829Z" fill="#9EC3D2" fill-opacity="0.35"/>
<path d="M448.069 292.351L448.602 292.855L450.649 292.276L451.053 291L451.965 290.946L452.799 290.452L451.717 289.809L451.47 289.454L450.937 290.259L451.132 290.721L450.807 291.107L450.194 290.978L448.708 291.869L448.747 292.384L448.069 292.351Z" fill="#9EC3D2" fill-opacity="0.35"/>
<path d="M408.673 303.954L409.149 304.276L410.269 303.719L410.449 302.892V301.525L412.246 300.324L412.554 300.333L413.642 299.48L413.472 297.721L410.65 298.012L410.756 298.57L411.169 298.863L411.285 299.821L410.313 300.596L410.08 300.161L410.122 299.587L409.562 299.09L408.188 299.613L409.467 300.144L409.51 301.694L408.663 302.72L408.673 303.954Z" fill="#9EC3D2" fill-opacity="0.35"/>
<path d="M400.79 305.207L401.382 305.242L401.73 305.529L402.555 305.538L402.756 303.624V302.371L403.285 302.284L403.486 300.97L404.829 300.936L405.304 300.614L404.5 300.588L403.412 300.709L402.239 300.361H398.942L399.027 301.126L400.126 302.449L399.935 303.127L399.945 303.484L400.79 305.207Z" fill="#9EC3D2" fill-opacity="0.35"/>
<path d="M473.247 304.992L473.185 305.251L473.999 306.179L474.437 306.334L474.499 305.973L473.247 304.992Z" fill="#9EC3D2" fill-opacity="0.35"/>
<path d="M394.489 287.887L394.94 287.878L395.346 287.38L396.028 287.281L396.754 287.643L398.304 287.679L399.501 287.28L399.952 286.964L399.986 286.548L400.821 285.859L401.042 284.339L400.493 283.397L399.086 283.117L395.832 285.19L395.371 285.154L395.172 286.593L393.512 286.729L394.489 287.887Z" fill="#9EC3D2" fill-opacity="0.35"/>
<path d="M394.61 290.395L395.303 290.422L396.138 291.183L396.544 291.274L396.863 291.147L397.347 291.092L397.511 290.541L398.17 290.187L398.884 290.16L400.191 288.195L400.17 287.751L399.566 287.372L398.358 287.806L396.741 287.788L395.97 287.389L395.421 287.489L395.135 287.896L395.113 289.045L394.652 289.579L394.61 290.395Z" fill="#9EC3D2" fill-opacity="0.35"/>
<path d="M351.529 286.459L351.916 286.522L351.928 287.171L351.477 288.222L350.264 288.124L349.993 287.617L350.354 287.002L351.037 286.482L351.529 286.459Z" fill="#9EC3D2" fill-opacity="0.35"/>
<path d="M396.115 268.578L395.315 268.9L395.484 269.026L395.502 269.348L395.333 269.32L395.146 269.082L394.698 269.661L395.386 269.778L395.642 269.999L395.778 270.002L395.868 269.502L396.3 269.354L396.115 268.578Z" fill="#9EC3D2" fill-opacity="0.35"/>
<path d="M404.131 259.03L404.488 258.816L404.456 258.576L404.23 258.469L404.262 258.176H404.457V258.016L403.614 257.83L402.351 257.937L402.221 258.39L401.93 258.31L401.735 258.043L401.118 258.069L401.053 258.576L400.762 258.683L400.599 258.415L399.302 259.269L399.562 259.509L399.076 259.695L397.974 261.482L397.586 261.696L397.617 261.856L398.006 262.016L397.909 262.363L397.26 262.336L397.065 262.15L396.645 262.55L396.385 262.71L396.32 263.084L396.094 263.191L395.511 263.298L395.219 264.046L395.413 265.274L395.64 265.834L395.899 266.048L396.482 266.022L397.325 265.354L397.648 264.901L397.746 265.568L398.297 264.768L398.329 262.526L398.778 262.295L398.912 261.057L400.272 259.456L400.92 259.27L401.212 258.976L402.184 259.163L402.67 259.402L402.832 258.735L403.644 258.335L404.131 259.03Z" fill="#9EC3D2" fill-opacity="0.35"/>
<path d="M399.326 252.073L399.034 251.833L398.387 252.091H397.2L397.013 252.657L397.679 253.137L397.97 253.103L398.387 252.52L398.741 252.726L398.489 253.137L398.364 253.738L398.656 254.115L399.281 253.257L400.095 252.45L399.782 252.228L399.326 252.073ZM399.679 251.044L399.158 251.438L399.47 251.832H400.032L400.262 252.089L400.949 252.381L401.74 252.004L402.283 251.627L402.095 251.318L401.553 251.061L401.157 251.353L400.887 251.078L400.678 251.096L400.408 251.576L400.012 251.25L399.97 251.028L399.679 251.044ZM400.866 252.811L400.449 253.12L400.096 253.343L400.262 253.582L400.596 253.668L401.138 253.461L401.39 253.204L401.16 252.895L400.866 252.811Z" fill="#9EC3D2" fill-opacity="0.35"/>
<path d="M431.646 279.305L431.727 279.921L433.155 280.449L435.442 280.588L435.356 280.136L433.827 279.792L432.53 279.161L431.646 279.305Z" fill="#9EC3D2" fill-opacity="0.35"/>
<path d="M474.374 313.871L474.561 315.574L474.31 316.348L473.37 316.916L473.432 317.587V318.309L473.683 318.568L476.254 316.761V316.348H475.627L474.749 313.923L474.374 313.871ZM472.494 317.588L472.996 318.361L471.615 319.446L471.49 320.013L470.55 320.115L468.983 321.302L467.541 320.735L467.416 320.322L470.048 319.393L472.494 317.588Z" fill="#9EC3D2" fill-opacity="0.35"/>
<path d="M418.782 284.832L420.088 284.217L420.319 283.314L420.033 283.18L420.152 282.212L420.401 282.094L420.668 282.436L422.256 283.115V283.492L420.332 285.806L419.447 285.831L418.782 284.832Z" fill="#9EC3D2" fill-opacity="0.35"/>
<path d="M352.032 288.986L351.774 289.644L352.626 289.824L353.154 289.91L353.244 289.4L353.811 289.166L354.315 289.378L354.513 289.637L354.753 289.614L354.942 289.144L354.313 288.932L353.836 288.72L353.359 288.985L352.792 289.219L352.213 289.029L352.032 288.986Z" fill="#9EC3D2" fill-opacity="0.35"/>
<path d="M352.817 294.748L352.474 295.031L352.497 295.483L355.49 299.942L358.598 301.579L359.079 300.921L359.194 299.473L358.943 298.57L358.096 297.404L357.593 297.535L357.365 297.741L356.36 296.8L356.611 295.69L357.777 295.069L357.685 294.486L356.498 294.448L355.881 293.602L355.538 293.508L355.562 294.017L354.031 295.502L352.888 295.277L352.817 294.748Z" fill="#9EC3D2" fill-opacity="0.35"/>
<path d="M463.727 294.57L463.661 298.099L464.284 298.072L465.102 297.291L465.789 297.318L466.23 297.641L466.377 298.638L467.784 299.244L468.144 299.136V298.772L467.015 298.004L466.459 296.952L466.9 296.778L466.573 296.198L465.92 296.185L465.755 295.566L464.022 294.61L463.727 294.57Z" fill="#9EC3D2" fill-opacity="0.35"/>
<path d="M469.05 295.543L468.883 295.575L468.78 295.947L468.459 296.117L467.492 296.256L467.531 296.553L468.549 296.511L469.194 296.182L469.155 295.609L469.05 295.543ZM468.625 294.673L468.469 294.853L469.319 295.469L469.436 295.829L469.667 295.808L469.694 295.437L469.435 295.246L468.625 294.673Z" fill="#9EC3D2" fill-opacity="0.35"/>
<path d="M452.527 287.241L452.375 287.478L452.29 287.77L451.446 288.646L451.497 288.827L451.852 288.785L452.949 287.783L452.527 287.241ZM453.894 286.908L453.876 287.631L454.198 287.896L454.316 288.41L454.637 288.466L454.789 288.145L454.536 287.992L454.469 287.088L453.894 286.908ZM454.808 287.187L454.79 287.826L454.975 288.076L455.296 287.77L455.212 287.214L454.808 287.187ZM455.009 286.629L455.33 286.977L455.482 287.311H455.77L455.719 286.74L455.398 286.56L455.009 286.629ZM455.635 287.937L455.702 288.355L455.11 288.744L454.62 288.786L454.097 289.246L454.115 289.455L454.604 289.329L454.942 289.149L455.23 289.746L455.737 290.038L455.94 289.982L456.125 289.801L455.721 289.468L455.958 289.315L456.228 289.495L456.413 289.245L456.228 288.939L456.194 288.258L455.635 287.937ZM452.882 283.695L452.426 283.959L452.375 284.794L453.086 285.92L453.323 286.073L453.626 285.906L454.149 285.975L454.25 286.35L454.638 286.378L454.824 286.17L454.587 285.906L454.299 285.684L453.691 285.629L453.37 285.197L453.741 284.738L453.775 284.335L453.522 283.821L452.882 283.695ZM453.119 286.185L453.253 286.575L453.489 286.7L453.659 286.52L453.389 286.214L453.119 286.185Z" fill="#9EC3D2" fill-opacity="0.35"/>
<path d="M423.155 280.356L423.614 280.913L423.57 281.2L422.959 281.398L422.914 281.866H423.614L423.854 281.704H425.187L426.389 282.568L426.542 282.154H427.438L427.459 281.632L426.542 280.913L426.739 280.518L427.679 280.464L428.946 278.306L428.246 277.857L427.985 277.102L429.688 276.976L428.683 275.807L428.147 275.688L427.929 275.905L427.764 275.915L426.759 276.436L427.088 276.886L426.716 277.21L426.257 278.595L425.121 279.188L424.967 279.837L423.155 280.356Z" fill="#9EC3D2" fill-opacity="0.35"/>
<path d="M403.425 269.515L403.574 269.741L403.61 269.98L403.486 270.213L403.204 270.658L402.965 270.745L402.655 270.636L402.47 270.643L402.019 270.781L401.507 270.657L400.677 270.176L399.864 269.82L399.537 269.412L399.475 268.452L400.111 268L400.941 267.775L401.213 267.752L401.277 267.92L401.629 268.035L402.603 268.051L402.904 268.043L403.398 268.663L403.275 268.917L403.328 269.216L403.424 269.515L403.425 269.515Z" fill="#9EC3D2" fill-opacity="0.35"/>
<path d="M360.948 284.863L360.481 284.735L360.107 284.927L360.294 285.105L360.932 285.182L360.948 284.863Z" fill="#9EC3D2" fill-opacity="0.35"/>
<path d="M389.196 274.782L389.087 276.031L388.774 276.262L388.806 276.404L389.024 276.7L388.883 277.061L389.118 277.126L389.666 277.074L389.634 276.713L389.993 275.039L389.915 274.808L389.196 274.782Z" fill="#9EC3D2" fill-opacity="0.35"/>
<path d="M385.177 278.418L384.986 278.616L385.177 278.814L385.464 278.695L385.177 278.418ZM378.897 275.617L378.657 275.815L379.088 276.013L379.135 275.737L378.897 275.617ZM380.192 275.499L379.904 275.656L380.144 275.813L380.528 275.733L380.192 275.499ZM380.383 276.051L380.24 276.368L380.431 276.565L380.671 276.408L380.383 276.051ZM381.533 276.683L381.438 276.88L381.581 276.999L381.964 276.801L381.533 276.683Z" fill="#9EC3D2" fill-opacity="0.35"/>
<path d="M364.607 301.966L364.995 302.313L364.95 303.046L366.07 302.99L366.916 303.875L366.847 304.665L366.299 305.342L365.179 305.38L365.133 305.003L365.453 304.382L364.355 303.817H363.442L362.757 303.215L363.255 302.051L364.607 301.966Z" fill="#9EC3D2" fill-opacity="0.35"/>
<path d="M417.766 281.681L417.674 282.26L417.946 282.429L418.193 282.411L418.285 281.682L418.071 281.556L417.766 281.681Z" fill="#9EC3D2" fill-opacity="0.35"/>
<path d="M403.551 271.369L403.505 271.583L402.482 272.279L403.337 273.304L403.886 273.617H404.871L405.196 273.395L405.633 273.349L405.958 273.509L406.534 272.973L406.423 272.705L405.838 272.582L405.438 272.566L405.458 272.107L404.927 271.425L403.551 271.369Z" fill="#9EC3D2" fill-opacity="0.35"/>
<path d="M402.38 272.371L402.018 272.593H401.842L401.721 272.899L402.149 273.305L402.178 273.627L401.997 273.836L402.624 274.37L403.302 274.201L403.246 273.412L402.38 272.371Z" fill="#9EC3D2" fill-opacity="0.35"/>
<path d="M457.58 254.812L457.891 255.69L458.513 255.836L459.135 255.032L458.78 254.483L458.912 254.008H459.845L459.622 254.373L459.711 255.69L458.378 258.396L458.511 258.981L458.466 259.968L460.952 262.93L461.44 263.039L461.484 260.627L461.972 260.261L461.439 259.311L461.882 258.908L460.905 257.848L460.372 257.885L460.195 256.13L461.571 255.837L461.66 255.325L462.371 255.179L462.77 255.472L463.257 253.864L464.1 252.695L464.766 252.401L465.344 252.437V251.889L464.411 251.743L463.123 250.865L463.745 250.281L463.212 249.293L463.655 248.928L464.189 249.512L465.521 249.915L466.986 250.025L467.164 249.514L466.41 248.892L467.253 247.942L465.343 247.394L464.855 248.198L464.233 247.539L460.726 246.552L457.395 247.027L456.907 247.246V247.465L457.618 247.759L457.529 248.453L456.241 248.014L453.4 248.929L452.912 248.088H450.958L450.069 248.856L446.917 248.272L444.032 248.747L443.677 249.478L444.12 249.587L444.076 250.136L441.279 250.391L441.458 251.122L438.881 250.756L439.504 249.806L436.883 249.697L437.106 250.684L436.263 251.014L435.553 250.465L432.668 250.868L431.558 251.708L431.514 252.219L430.803 252.255L430.715 251.671L432.98 250.062V248.965L431.515 248.636L429.605 249.147L428.806 248.488H428.451L428.008 249.219L428.363 249.548L425.83 250.682L423.655 252.035L422.323 253.534V254.154L423.743 254.629L423.033 255.068L421.524 254.63L420.902 255.068L419.969 254.191L419.791 254.52L420.812 257.152L421.079 257.226L421.789 256.933L422.145 257.152V257.627L421.478 257.408L421.079 257.664L421.346 258.138L421.123 259.382L419.747 259.492L419.659 259.089L420.457 258.686L420.636 257.589L419.747 256.638L419.436 254.994L418.016 254.811L417.883 255.395L418.15 255.688L417.572 256.091L417.795 257.188L418.638 257.481L418.816 258.286L417.971 257.847L415.797 257.518L415.53 258.102L413.798 258.613L413.531 258.248L411.266 259.272L411.222 259.967L410.332 260.076L410.6 259.565V259.054L409.71 258.798L409.133 258.982L409.621 259.75L409.976 260.261V260.664L409.309 260.554L409.177 260.445L408.511 261.029L408.866 261.541L407.357 261.504L407.845 262.017L407.712 262.236H406.914L406.336 261.907L406.204 260.993L405.271 260.7V260.335L407.225 260.664L408.291 260.737L408.734 260.189L408.335 259.604L405.494 258.69L404.513 258.889L404.178 259.125L404.282 259.666L404.699 259.725L404.602 260.577L405.888 263.046L404.959 264.25L404.895 264.522L405.367 264.793L404.941 265.023L404.658 265.027L404.711 266.088L405.102 266.54L405.107 266.979L405.607 267.017L406.372 267.255L407.181 268.164L407.19 268.404L406.927 268.772L407.531 268.745L408.119 268.883L408.915 269.803L410.872 269.949L410.787 271.043L410.113 271.516L410.252 271.7L409.586 272.285L409.409 272.834L409.809 273.309L411.097 273.674L411.63 273.419L415.049 274.479L415.182 274.185L414.471 273.637V272.942L414.028 272.833L414.116 272.248L414.827 271.553L413.553 270.774L413.641 269.689L415.004 268.958L416.603 269.031L416.87 269.434L418.513 269.508L419.713 268.959L419.09 268.41L419.223 267.387L422.33 266.144L424.721 267.024L425.52 266.439L427.873 268.267L429.649 268.121L430.271 268.633L431.958 268.778L433.068 267.536L434.488 268.048L435.243 268.158L435.997 267.609L435.331 267.244L435.909 266.513L437.552 266.952L437.907 267.537L438.617 267.573L439.061 267.318L440.26 267.281L440.393 267.537L441.769 267.611L442.701 266.806L444.611 266.99L445.189 266.806L445.366 265.928L444.788 264.868L445.366 264.466H447.186L448.917 266.148L451.137 267.172H451.803L451.891 266.733L452.69 266.33L452.778 268.706L452.068 268.742V269.327L452.467 269.73L452.393 270.253L452.688 270.352L452.867 269.987L453.133 270.06L453.31 270.206L454.109 270.06L454.907 268.159L454.996 265.782L453.974 263.88L452.686 262.601L452.064 262.675V263.078L450.555 262.603L451.133 261.579L451.621 258.873L453.663 258.362L454.64 257.851H455.705L455.437 258.144L455.704 258.51L456.637 257.705L457.17 257.741L457.082 257.266L456.237 257.121L456.815 255.402L457.579 254.814L457.58 254.812Z" fill="#9EC3D2" fill-opacity="0.35"/>
<path d="M401.993 267.528L401.728 267.929L402.682 267.936H402.876L402.839 267.71L402.691 267.567L401.993 267.528ZM461.479 263.345L461.261 263.568L461.278 263.916L461.481 263.902L461.818 263.415L461.479 263.345ZM468.768 249.825L468.351 250.047L468.252 250.33L468.448 250.512L468.89 250.391L469.331 250.512L469.577 250.573L469.552 249.906L468.768 249.825ZM409.849 249.883L410.153 249.983L409.939 250.283V250.709L409.483 250.934H408.997L408.723 250.659L408.753 250.358L408.967 250.133H409.393L409.849 249.883ZM411.004 249.607V249.907L411.308 250.108L411.734 250.084L412.099 249.808V249.607H411.765L411.491 249.682L411.278 249.482L411.004 249.607ZM412.739 249.633L412.953 250.008L413.379 250.033L413.683 249.933L413.531 249.582L413.135 249.507L412.739 249.633ZM414.472 249.132L414.138 249.081L413.834 249.333L413.986 249.558L414.078 249.909L414.474 249.659L414.566 249.384L414.472 249.132ZM416.328 251.787L416.236 252.138L415.536 252.639L414.045 252.915L412.827 254.568L412.613 255.045L413.831 255.296L414.013 254.695L414.379 253.768L415.322 253.367L416.113 252.866L416.691 252.665H416.995V251.989L416.328 251.787ZM412.404 255.445L413.225 255.52L413.499 256.296L414.199 256.897L413.955 257.298H413.529L413.133 256.923L412.252 256.898L411.886 256.497V256.221L412.434 256.096L412.404 255.445ZM425.243 246.903L424.847 246.702H424.391L424.3 246.927L423.814 247.153L423.448 247.252L423.388 247.553L424.239 247.603L425.243 246.903ZM426.185 246.978L425.971 247.353L425.545 247.329L424.876 247.73L424.694 248.231H425.119L425.363 247.905L425.941 248.256L426.489 248.055L426.885 247.779L426.733 247.353L426.519 247.053L426.185 246.978ZM427.068 247.253L427.282 247.955L427.616 248.606L427.982 248.081L428.682 247.955V247.58L428.226 247.304L427.068 247.253ZM443.761 246.13L444.237 246.457L444.574 246.342L444.673 245.885L443.98 245.494L443.524 245.739L442.415 245.821V246.23L441.245 246.246V246.914L442.612 247.746L442.969 247.533L442.89 246.945L443.762 246.767L443.584 246.489L443.268 246.228L443.761 246.13ZM445.03 245.739L445.346 246.229L446.576 246.114L446.913 245.755L446.834 245.445L446.496 245.33L446.18 245.527L445.269 245.69L445.03 245.739ZM444.95 247.648L444.335 247.518L443.98 247.828L443.821 248.253L444.653 248.188L445.288 247.926L444.95 247.648ZM460.885 244.825L460.37 244.695L459.776 244.874L459.479 245.233L459.856 245.642L460.847 245.283L461.045 245.104L460.885 244.825ZM461.075 264.195V264.807L461.312 264.876L461.481 264.653V264.181L461.075 264.195ZM454.165 261.982L454.149 262.873L455.517 264.599L456.006 266.1L456.868 267.436L457.205 267.532L457.493 267.337L457.628 267.017L456.394 265.918L456.428 265.348L456.698 265.251L456.766 264.918L454.35 262.122L454.165 261.982ZM463.693 259.215L463.356 259.242L463.559 259.479L463.981 259.716L464.1 259.604L463.693 259.215ZM464.35 259.382L464.402 259.619L464.925 259.744L464.976 259.577L464.35 259.382ZM467.222 260.29L467.442 260.614L467.81 260.594L467.884 260.371L467.222 260.29ZM470.927 260.795L471.221 261.24L471.442 261.038V260.735L470.927 260.795Z" fill="#9EC3D2" fill-opacity="0.35"/>
<path d="M408.082 293.359L408.579 293.733L408.557 294.133L407.787 294.146V293.704L408.082 293.359Z" fill="#9EC3D2" fill-opacity="0.35"/>
<path d="M416.241 280.846L417.479 282.257L417.879 282.517L418.058 283.149L419.964 283.272L420.18 283.365L419.966 284.144L418.713 284.748L416.881 285.201L415.904 285.981L414.743 285.428L414.04 285.931L413.061 284.624L412.39 284.372L412.146 284.071V283.417L409.702 281.003L409.61 280.575H410.314L411.169 279.972L411.198 279.67L410.955 279.469L411.445 279.143L412.484 279.193L414.256 280.4L415.302 280.362L415.369 280.573L416.241 280.846Z" fill="#9EC3D2" fill-opacity="0.35"/>
<path d="M470.197 296.191L470.416 296.688L470.803 296.996L470.919 296.911L470.88 296.582L470.442 296.147L470.197 296.191ZM471.266 296.933L471.292 297.262L471.538 297.452L471.77 297.335L471.563 296.984L471.266 296.933ZM471.575 297.75L471.368 297.93L471.587 298.259L471.845 298.323L471.833 298.101L471.575 297.75ZM472.079 297.559L472.259 297.92L472.607 298.259L472.8 298.005L472.541 297.644L472.079 297.559ZM472.982 298.101L473.084 298.547L473.33 298.822L473.536 298.473L472.982 298.101ZM473.264 299.098L473.174 299.225L473.471 299.545L473.678 299.555L473.549 299.14L473.264 299.098ZM472.607 299.734L472.297 299.851L472.568 300.159L472.799 300.052L472.607 299.734Z" fill="#9EC3D2" fill-opacity="0.35"/>
<path d="M419.483 296.022L419.376 296.199L419.671 296.398L419.887 296.199L419.483 296.022ZM420.991 294.694L420.667 294.871L420.909 295.181H421.233L420.991 294.694ZM421.125 295.469L420.909 295.668L421.07 295.867L421.365 295.912L421.391 295.491L421.125 295.469Z" fill="#9EC3D2" fill-opacity="0.35"/>
<path d="M405.271 288.7L404.75 288.448L404.275 287.682L404.301 286.968L404.96 286.505L404.992 284.797L405.426 284.807L405.377 283.859L409.935 283.892L410.588 283.355L411.994 285.193L411.223 285.934V287.068L410.283 288.72L410.07 289.104L409.312 288.216L408.759 288.791L408.133 288.93L406.102 288.763L405.216 289.021L405.271 288.7Z" fill="#9EC3D2" fill-opacity="0.35"/>
<path d="M400.997 259.382L401.343 259.643H401.991L402.348 260.204L402.446 261.164L401.572 261.671V262.177L400.955 262.872L400.598 262.898L400.112 263.565L400.144 264.206L400.987 264.713L400.922 265.006L400.598 265.406L400.112 265.752L400.144 266.9L399.399 267.114L399.139 267.567H398.782L398.588 266.767L397.777 265.751L398.443 264.84L398.489 262.589L398.948 262.382L399.06 261.094L400.369 259.562L400.997 259.382Z" fill="#9EC3D2" fill-opacity="0.35"/>
<path d="M401.133 265.965L400.76 266.206L400.947 266.559L401.278 266.297L401.133 265.965Z" fill="#9EC3D2" fill-opacity="0.35"/>
<path d="M444.551 292.486L444.691 292.551L445.007 292.53L444.981 292.335L444.723 292.369L444.551 292.486Z" fill="#9EC3D2" fill-opacity="0.35"/>
<path d="M400.481 272.003L400.032 272.222L399.195 272.372L399.362 272.768L399.949 272.774L400.49 272.404L400.481 272.003Z" fill="#9EC3D2" fill-opacity="0.35"/>
<path d="M400.665 271.301L400.787 271.389L400.802 271.539L402.151 271.515L403.147 271.164L403.131 270.807L402.941 270.876L402.667 270.756L402.499 270.75L402.058 270.895L401.457 270.776L400.665 271.301Z" fill="#9EC3D2" fill-opacity="0.35"/>
<path d="M386.192 289.494L387.191 290.282L387.903 289.576L387.457 289.006L386.844 289.056L386.192 289.494Z" fill="#9EC3D2" fill-opacity="0.35"/>
<path d="M386.115 287.653L384.931 287.63L385.15 288.065L385.272 287.796L386.758 287.923L386.923 287.919L387.619 287.939L387.643 287.687L387.008 287.064L386.299 286.28L385.859 286.129L385.52 286.2L384.824 286.613L384.665 286.845L384.616 287.076L384.872 287.226L385.727 287.216L386.277 287.094L386.339 287.315L386.29 287.607L386.115 287.653Z" fill="#9EC3D2" fill-opacity="0.35"/>
<path d="M417.649 288.183L418.421 287.94L418.695 288.074L418.665 288.635L417.953 290.292L414.1 293.665L413.653 293.414L413.623 291.99L414.202 291.446L415.432 291.136L417.236 289.579L417.708 289.235L417.84 288.733L417.649 288.183Z" fill="#9EC3D2" fill-opacity="0.35"/>
<path d="M364.849 290.65L365.209 290.92L365.767 290.638L366.276 290.651L366.211 290.812L365.997 291.176L365.964 292.082L364.948 292.42L364.997 291.839L364.342 291.339L364.375 291.082L364.849 290.65Z" fill="#9EC3D2" fill-opacity="0.35"/>
<path d="M410.011 289.198L409.595 289.348L409.727 289.942H410.246L410.951 290.777L410.386 290.837L410.24 291.052L410.227 291.362L408.53 291.338L408.357 291.122L407.172 291.067L404.995 289.237L405.212 289.13L406.135 288.902L408.158 289.028L408.846 288.901L409.303 288.401L410.011 289.198Z" fill="#9EC3D2" fill-opacity="0.35"/>
<path d="M396.23 292.962L396.433 292.878L396.585 292.979L396.433 293.171L396.249 293.112L396.23 292.962ZM396.638 292.435L396.944 292.393L397.046 292.552L396.894 292.686L396.743 292.669L396.638 292.435Z" fill="#9EC3D2" fill-opacity="0.35"/>
<path d="M348.686 287.06L349.516 287.397L349.504 286.861L349.078 286.649L348.686 287.06Z" fill="#9EC3D2" fill-opacity="0.35"/>
<path d="M409.645 277.365L409.584 277.732L410.082 277.902L410.061 278.919L410.559 278.91L411.057 278.603L411.244 278.577L412.375 277.842L412.603 276.775L410.343 276.963L410.105 277.39L409.645 277.365Z" fill="#9EC3D2" fill-opacity="0.35"/>
<path d="M408.62 304.058L408.177 304.118L407.986 304.545L408.325 304.798H408.737L409.085 304.389L408.62 304.058Z" fill="#9EC3D2" fill-opacity="0.35"/>
<path d="M400.126 287.02L400.149 286.594L400.986 285.929L401.211 284.295L400.653 283.423L401.044 283.259L404.824 284.869L404.801 286.449L404.135 286.912V287.726L404.572 288.417H403.801L402.526 289.448L402.492 289.76L401.551 289.749L401.539 289.891L401.001 289.833L400.634 289.266L400.358 289.154L400.393 288.981L400.739 288.764V287.751L400.26 287.691L399.683 287.34L400.126 287.02Z" fill="#9EC3D2" fill-opacity="0.35"/>
<path d="M393.488 290.666L393.961 290.44L393.95 288.946L393.643 288.538L393.445 288.674L393.488 290.666Z" fill="#9EC3D2" fill-opacity="0.35"/>
<path d="M442.042 283.334L442.615 283.936V284.669L442.812 284.749L443.723 284.391L443.901 284.44L444.988 285.465L444.949 286.166L444.594 286.117L444.277 285.953L444.041 285.969L443.625 286.538L443.705 286.847L444.041 286.993L444.021 287.335L443.785 287.433L442.973 286.977V286.57L442.638 286.554L442.5 286.733L442.429 288.555L442.954 289.338L443.883 290.07L443.844 290.282L443.349 290.266L442.895 289.714H442.42L441.827 289.322L441.648 288.914L441.905 288.572L441.993 288.263L442.272 287.859L442.26 286.929L441.578 286.123L441.549 286.025L441.77 285.843L441.719 285.203L440.811 284.264L440.917 283.722L442.042 283.334Z" fill="#9EC3D2" fill-opacity="0.35"/>
<path d="M424.402 274.869L425.128 274.133H425.402L425.497 274.297L425.162 274.496V274.661L425.382 274.79L426.444 274.842L426.79 274.721L426.948 274.747L427.054 275.024L427.685 275.076L428.002 275.622L427.906 275.786L427.78 275.795L427.655 275.587L427.381 275.57L426.908 275.622L426.876 275.986L426.403 275.96L426.424 275.501L426.078 275.224L425.551 275.579L425.562 275.813L425.099 275.943H424.825L424.847 275.137L424.402 274.869Z" fill="#9EC3D2" fill-opacity="0.35"/>
<path d="M417.981 274.255L417.872 274.635H417.139V275.149L417.926 275.573L417.683 276.155V276.424L418.01 276.469L418.444 275.999L419.423 275.82L421.515 276.469L421.542 276.938L422.709 277.028L424.013 275.909L423.851 275.55L422.981 275.394L420.536 274.096L420.427 273.627H419.503L419.095 274.253H418.686L417.981 274.255Z" fill="#9EC3D2" fill-opacity="0.35"/>
<path d="M396.967 277.105L397.944 276.784L398.265 276.954L398.277 277.162L398.128 277.322L398.15 277.606L398.3 277.673V278.184L398.128 278.421L398.15 278.572L398.806 278.761L398.278 279.433L398.071 279.423L398.035 279.962L397.806 279.992L397.609 279.85L397.655 279.301L397.012 278.79L396.931 278.345L397.242 278.146L396.967 277.105Z" fill="#9EC3D2" fill-opacity="0.35"/>
<path d="M406.634 274.814L406.163 274.576L405.903 274.407L405.466 274.56L405.164 275.184L405.618 275.101L405.937 274.902L406.64 275.059L406.242 275.373L405.184 275.331L404.794 275.68V275.851L405.043 276.021V276.209L404.939 276.432L405.043 276.619L405.375 276.484L405.708 276.774L405.624 276.979L405.501 277.116L405.686 277.286L406.598 277.439L407.239 277.217V276.894L407.55 276.944L408.296 277.302L409.103 277.2L409.455 276.927L409.682 276.995V277.302H409.993L410.262 276.877L412.623 276.671L413.653 276.569L413.38 276.277L413.375 275.883L413.582 275.681L412.83 275.187L412.87 274.761H412.457L411.771 274.487L411.377 274.827L409.928 274.793L409.059 274.367L408.224 274.428L407.295 274.884L406.634 274.814Z" fill="#9EC3D2" fill-opacity="0.35"/>
<path d="M362.925 288.288L362.737 288.43L362.534 288.455V288.66L362.909 288.942L363.064 288.737L363.158 288.506L363.126 288.314L362.925 288.288Z" fill="#9EC3D2" fill-opacity="0.35"/>
<path d="M452.189 280.135L451.564 280.525L451.531 281.275L452.071 281.789L452.205 281.693L452.189 280.135Z" fill="#9EC3D2" fill-opacity="0.35"/>
<path d="M410.601 297.884L413.421 297.601L412.727 296.504L412.69 295.453L412.914 294.95L409.978 293.443L409.058 293.567L408.738 293.761L408.709 294.201L408.503 294.812L408.287 295.021L407.978 295.045L408.552 296.618L409.536 297.092L410.394 297.109L410.601 297.884Z" fill="#9EC3D2" fill-opacity="0.35"/>
<path d="M404.151 269.283L403.638 269.518L403.765 269.963L403.292 270.779L403.296 271.138L403.519 271.253L404.946 271.311L405.345 271.041L405.773 271.158L406.386 271.826L405.937 272.485L406.471 272.612L407.169 271.955L407.568 272.014L407.939 272.225L407.612 272.578L408.054 273.141H408.524L408.766 272.765L409.264 272.682L409.278 272.378L408.352 272.261L408.381 271.933H409.279L410.247 271.299L410.675 270.994L410.745 270.033L408.837 269.893L408.054 268.991L407.513 268.839L406.858 268.862L406.563 269.458L405.22 269.473L404.783 269.308L404.151 269.283Z" fill="#9EC3D2" fill-opacity="0.35"/>
<path d="M408.167 293.242L408.702 293.652L409.038 293.477L409.946 293.356L410.102 293.369L410.16 293.087L410.673 292.206L410.241 291.473L408.844 291.48L408.835 291.782L409.023 291.929L408.994 292.231L408.167 293.242Z" fill="#9EC3D2" fill-opacity="0.35"/>
<path d="M339.341 267.144L339.164 267.725L338.548 267.398H338.24L338.063 268.015L335.906 271.965L336.478 275.407L337.184 275.697L337.316 276.64H338.768L340.177 277.509L342.948 277.727L343.256 278.887L343.696 279.141L344.312 278.634L344.797 278.815L345.237 280.481L345.984 280.879L346.601 279.936L348.493 278.813L349.725 279.283L350.781 279.356L350.825 278.813L353.025 278.849L353.465 279.248L353.553 280.153L353.289 280.66L353.597 281.529H354.258L354.919 280.696L354.655 280.298L354.392 279.428L354.788 278.45L356.592 277.182L357.956 276.856L357.779 275.805L359.671 274.137L361.564 273.883L361.256 273.016L363.105 272.146V270.987L362.927 270.915L362.267 271.095L362.179 271.806L359.982 271.827L358.261 272.761L355.56 273.483L355.129 273.051L356.355 271.535L355.749 271.063L355.337 270.422L354.484 269.862L353.556 269.799L351.803 268.821L339.341 267.144Z" fill="#9EC3D2" fill-opacity="0.35"/>
<path d="M325.279 251.985L325.89 252.919L326.283 252.847V252.523L325.279 251.985ZM321.832 260.202L321.802 260.637L322.183 260.565V260.371L321.832 260.202ZM321.245 260.396L320.482 260.71L320.6 261.048L320.894 260.855L321.48 260.637L321.245 260.396ZM318.073 260.806L317.546 260.709L317.457 260.903L317.515 261.265L318.073 260.806ZM316.957 260.782L316.457 260.614L316.28 260.879L316.604 261.145L316.957 260.782ZM329.509 250.764L328.026 251.051L328.332 252.416L329.945 252.775L330.031 253.062L327.634 253.673L326.282 255.504L326.761 257.443L327.546 257.873L328.157 257.406L328.332 257.694L327.59 258.412L324.712 259.489L322.879 259.848L322.835 260.387L327.065 259.382L328.809 258.986L330.422 257.37L332.21 256.402L331.295 257.658L332.299 257.766L334 257.155L334.306 258.16L335.482 258.375L336.703 259.344L336.79 260.062L336.615 260.241L336.832 260.923H337.138L337.182 259.773H337.53L337.617 262.609L338.49 261.998L337.879 259.054H336.963L335.96 258.013L340.887 251.191L336.004 248.068L330.553 248.93L330.336 250.294L331.513 250.869L331.076 251.803L329.509 250.764Z" fill="#9EC3D2" fill-opacity="0.35"/>
<path d="M366.126 306.647L365.764 306.963L365.914 308.664L367.052 308.934L368.499 307.749L366.126 306.647Z" fill="#9EC3D2" fill-opacity="0.35"/>
<path d="M424.178 275.912L424.722 275.935V275.174L424.206 274.928L425.076 274.033H425.429L425.783 274.37L426.706 274.079L425.429 273.721L425.38 273.505L425.076 273.565L424.778 273.989L423.489 273.955L422.544 272.862L420.883 272.996L420.092 272.355L418.997 272.204L418.202 272.468L418.663 273.721L418.668 274.143L419.004 274.149L419.415 273.507L420.511 273.519L420.673 274.011L423.021 275.285L423.929 275.455L424.178 275.912Z" fill="#9EC3D2" fill-opacity="0.35"/>
<path d="M362.895 287.288L362.678 287.416L362.849 287.673L363.13 287.545L362.895 287.288ZM362.63 287.787L362.427 287.953L362.504 288.055H362.754L362.831 287.888L362.63 287.787Z" fill="#9EC3D2" fill-opacity="0.35"/>
<path d="M357.31 288.453L357.388 288.827L357.962 288.976L358.093 288.287L358.699 287.775L359.305 288.355L360.699 288.666L361.879 288.463L362.683 289.273L363.289 289.584L362.624 290.411L362.847 291.038L362.467 291.422L362.073 291.692L361.22 291.34L361.024 291.502V292.002L361.648 292.244L360.729 293.056L360.122 293.016L359.513 292.469L359.384 290.41L357.303 289.829L356.925 288.924L357.31 288.453Z" fill="#9EC3D2" fill-opacity="0.35"/>
<path d="M444.698 288.24L444.908 288.51L444.947 288.819L445.5 288.869L446.171 288.137L446.804 287.991L447.14 287.243L446.982 286.038L446.33 285.306L445.643 284.858L444.769 283.63L445.396 282.772L444.498 281.93L443.779 281.905L443.132 282.189L443.325 282.869L444.187 282.993L444.419 283.517L444.115 283.679L444.134 283.809L446.157 285.426L446.236 285.901L446.115 287.403L444.698 288.24Z" fill="#9EC3D2" fill-opacity="0.35"/>
<path d="M475.761 301.636L475.542 301.875L475.634 302.145L475.743 302.206L475.943 301.995L475.761 301.636ZM475.87 302.371L475.888 302.565L476.124 302.626L476.289 302.551L476.124 302.34L475.87 302.371ZM476.216 304.112L476.107 304.247L476.271 304.397L476.545 304.322L476.216 304.112Z" fill="#9EC3D2" fill-opacity="0.35"/>
<path d="M414.119 286.043L414.373 286.661V287.265L414.985 287.718L419.292 286.284L419.333 285.89L418.642 284.877L416.909 285.329L415.914 286.128L414.76 285.571L414.119 286.043Z" fill="#9EC3D2" fill-opacity="0.35"/>
<path d="M419.001 287.548L419.377 287.892L419.886 287.64L420.069 287.589L419.836 287.405L419.389 287.513L419.001 287.548Z" fill="#9EC3D2" fill-opacity="0.35"/>
<path d="M407.435 302.561L406.039 303.615L405.707 304.266L404.601 304.154L403.681 304.822L403.069 304.773L403.119 303.849L402.901 303.787L402.75 305.677L401.665 305.668L401.338 305.353L400.859 305.349L401.296 306.373L402.075 306.975L401.518 307.505L401.879 308.169L402.713 308.429L403.377 307.967L405.28 307.976L405.416 307.837L406.261 307.716L409.118 305.391L409.107 304.659L408.802 304.983H408.344L407.788 304.602L408.071 304.027L408.557 303.947L408.512 302.766L407.435 302.561ZM406.765 305.232L407.032 305.224L407.466 305.607L407.453 306.052L406.946 306.261L406.914 306.409L406.141 306.416L405.898 305.939L406.119 305.59L406.765 305.232Z" fill="#9EC3D2" fill-opacity="0.35"/>
<path d="M403.97 299.828L404.53 300.463L405.398 300.506L405.705 300.645L406.613 300.654L407.396 299.757L409.583 298.957L409.774 298.253L409.52 297.243L408.379 296.712L407.617 296.756L407.237 297.443L407.248 297.756L408.146 298.113L408.199 298.888L407.427 298.923L407.236 298.662L405.091 297.913L405.028 298.488L404.013 298.514L403.97 299.828Z" fill="#9EC3D2" fill-opacity="0.35"/>
<path d="M405.757 300.925L407.342 302.388L408.557 302.641L409.372 301.597L409.308 300.214L407.987 299.656L407.49 299.84L406.75 300.762L405.725 300.754L405.757 300.925Z" fill="#9EC3D2" fill-opacity="0.35"/>
<path d="M172.233 162.229C172.54 160.041 174.575 158.492 176.707 159.072C191.722 163.16 201.709 177.874 199.489 193.689C197.08 210.843 181.222 222.797 164.068 220.388C148.253 218.168 136.858 204.516 137.063 188.955C137.092 186.747 139.142 185.217 141.329 185.524L164.467 188.772C166.655 189.079 168.677 187.555 168.985 185.367L172.233 162.229Z" fill="#9EC3D2" fill-opacity="0.35"/>
<path d="M165.787 180.376C166.229 183.34 163.374 185.719 160.538 184.75L140.549 177.921C139.804 177.667 139.108 177.212 138.776 176.498C135.408 169.266 150.736 158.35 159.977 158.238C161.552 158.219 162.685 159.544 162.917 161.102L165.787 180.376Z" fill="#9EC3D2" fill-opacity="0.35"/>
<rect x="48.9336" y="63.9452" width="74.4449" height="74.4449" rx="3.5" stroke="#78AEC3" stroke-opacity="0.15"/>
<rect x="48.9336" y="152.106" width="165.996" height="74.4449" rx="3.5" stroke="#78AEC3" stroke-opacity="0.15"/>
<rect x="140.485" y="63.9452" width="74.4449" height="74.4449" rx="3.5" stroke="#78AEC3" stroke-opacity="0.15"/>
<rect x="0.538574" y="0.866089" width="230.149" height="84.7561" rx="4" fill="#9FC4D2" fill-opacity="0.15"/>
<rect x="10.668" y="12.2778" width="209" height="3.42302" rx="1.71151" fill="#B5D5E5" fill-opacity="0.35"/>
<rect x="10.668" y="23.7184" width="209" height="3.42302" rx="1.71151" fill="#B5D5E5" fill-opacity="0.35"/>
<rect x="10.668" y="35.1592" width="209" height="3.42302" rx="1.71151" fill="#B5D5E5" fill-opacity="0.35"/>
<rect x="10.668" y="46.5998" width="209" height="3.42302" rx="1.71151" fill="#B5D5E5" fill-opacity="0.35"/>
<rect x="10.668" y="58.0405" width="209" height="3.42302" rx="1.71151" fill="#B5D5E5" fill-opacity="0.35"/>
<rect x="10.668" y="69.4809" width="209" height="3.42302" rx="1.71151" fill="#B5D5E5" fill-opacity="0.35"/>
<circle cx="18.7181" cy="62.1931" r="2.19322" fill="#ADCAD6" stroke="#ADCAD6"/>
<circle cx="67.7801" cy="49.041" r="2.19322" fill="#ADCAD6" stroke="#ADCAD6"/>
<circle cx="97.4496" cy="72.9039" r="2.19322" fill="#ADCAD6" stroke="#ADCAD6"/>
<circle cx="129.538" cy="43.3207" r="2.19322" fill="#ADCAD6" stroke="#ADCAD6"/>
<circle cx="181.622" cy="40.5509" r="2.19322" fill="#ADCAD6" stroke="#ADCAD6"/>
<circle cx="246.795" cy="16.6825" r="2.19322" fill="#ADCAD6" stroke="#ADCAD6"/>
<line x1="18.5886" y1="61.7103" x2="67.6509" y2="48.5857" stroke="#ADCAD6"/>
<line x1="97.1366" y1="73.2936" x2="67.4672" y2="49.4585" stroke="#ADCAD6"/>
<line x1="97.1108" y1="72.5361" x2="129.2" y2="42.9531" stroke="#ADCAD6"/>
<line x1="181.649" y1="41.0503" x2="129.565" y2="43.8201" stroke="#ADCAD6"/>
<line x1="181.449" y1="40.0822" x2="245.772" y2="16.2137" stroke="#ADCAD6"/>
<rect x="239.295" y="294.866" width="171.977" height="84.7561" rx="4" fill="#9FC4D2" fill-opacity="0.15"/>
<rect x="244.661" y="307.144" width="157.761" height="3.42302" rx="1.71151" fill="#B5D5E5" fill-opacity="0.35"/>
<rect x="244.661" y="318.585" width="157.761" height="3.42302" rx="1.71151" fill="#B5D5E5" fill-opacity="0.35"/>
<rect x="244.661" y="330.026" width="157.761" height="3.42302" rx="1.71151" fill="#B5D5E5" fill-opacity="0.35"/>
<rect x="244.661" y="341.466" width="157.761" height="3.42302" rx="1.71151" fill="#B5D5E5" fill-opacity="0.35"/>
<rect x="244.661" y="352.907" width="157.761" height="3.42302" rx="1.71151" fill="#B5D5E5" fill-opacity="0.35"/>
<rect x="244.661" y="364.348" width="157.761" height="3.42302" rx="1.71151" fill="#B5D5E5" fill-opacity="0.35"/>
<circle cx="2.69322" cy="2.69322" r="2.69322" transform="matrix(1 0 0 -1 248.034 323.817)" fill="#ADCAD6"/>
<circle cx="282.614" cy="352.233" r="2.69322" fill="#ADCAD6"/>
<circle cx="2.69322" cy="2.69322" r="2.69322" transform="matrix(1 0 0 -1 297.097 336.969)" fill="#ADCAD6"/>
<circle cx="2.69322" cy="2.69322" r="2.69322" transform="matrix(1 0 0 -1 328.983 341.466)" fill="#ADCAD6"/>
<circle cx="2.69322" cy="2.69322" r="2.69322" transform="matrix(1 0 0 -1 389.397 336.287)" fill="#ADCAD6"/>
<circle cx="2.69322" cy="2.69322" r="2.69322" transform="matrix(1 0 0 -1 400.929 317.27)" fill="#ADCAD6"/>
<circle cx="2.69322" cy="2.69322" r="2.69322" transform="matrix(1 0 0 -1 326.766 313.106)" fill="#ADCAD6"/>
<circle cx="361.346" cy="362.943" r="2.69322" fill="#ADCAD6"/>
<circle cx="2.69322" cy="2.69322" r="2.69322" transform="matrix(1 0 0 -1 358.855 342.69)" fill="#ADCAD6"/>
<g filter="url(#filter1_dd_4954_38499)">
<circle cx="2.69322" cy="2.69322" r="2.69322" transform="matrix(1 0 0 -1 415.486 329.418)" fill="#ADCAD6"/>
</g>
<g filter="url(#filter2_dd_4954_38499)">
<circle cx="2.69322" cy="2.69322" r="2.69322" transform="matrix(1 0 0 -1 434.661 313.261)" fill="#ADCAD6"/>
</g>
<line y1="-0.5" x2="50.7875" y2="-0.5" transform="matrix(0.966032 0.258422 0.258422 -0.966032 250.728 321.123)" stroke="#ADCAD6"/>
<line x1="282.485" y1="351.75" x2="331.547" y2="338.625" stroke="#ADCAD6"/>
<line y1="-0.5" x2="38.0576" y2="-0.5" transform="matrix(-0.77959 0.62629 0.62629 0.77959 329.459 310.413)" stroke="#ADCAD6"/>
<line x1="361.033" y1="363.333" x2="331.363" y2="339.498" stroke="#ADCAD6"/>
<line y1="-0.5" x2="43.6446" y2="-0.5" transform="matrix(0.735232 0.677816 0.677816 -0.735232 329.459 310.413)" stroke="#ADCAD6"/>
<line x1="361.007" y1="362.576" x2="393.096" y2="332.993" stroke="#ADCAD6"/>
<line x1="404.05" y1="314.835" x2="392.518" y2="333.852" stroke="#ADCAD6"/>
<line x1="418.293" y1="327.212" x2="361.662" y2="340.483" stroke="#ADCAD6"/>
<g filter="url(#filter3_dd_4954_38499)">
<line x1="417.857" y1="326.343" x2="437.032" y2="310.185" stroke="#ADCAD6"/>
</g>
<defs>
<filter id="filter0_d_4954_38499" x="313.458" y="238.766" width="165.91" height="89.6173" filterUnits="userSpaceOnUse" color-interpolation-filters="sRGB">
<feFlood flood-opacity="0" result="BackgroundImageFix"/>
<feColorMatrix in="SourceAlpha" type="matrix" values="0 0 0 0 0 0 0 0 0 0 0 0 0 0 0 0 0 0 127 0" result="hardAlpha"/>
<feOffset dy="1"/>
<feGaussianBlur stdDeviation="1"/>
<feComposite in2="hardAlpha" operator="out"/>
<feColorMatrix type="matrix" values="0 0 0 0 0 0 0 0 0 0 0 0 0 0 0 0 0 0 0.05 0"/>
<feBlend mode="normal" in2="BackgroundImageFix" result="effect1_dropShadow_4954_38499"/>
<feBlend mode="normal" in="SourceGraphic" in2="effect1_dropShadow_4954_38499" result="shape"/>
</filter>
<filter id="filter1_dd_4954_38499" x="410.486" y="320.032" width="15.3862" height="15.3864" filterUnits="userSpaceOnUse" color-interpolation-filters="sRGB">
<feFlood flood-opacity="0" result="BackgroundImageFix"/>
<feColorMatrix in="SourceAlpha" type="matrix" values="0 0 0 0 0 0 0 0 0 0 0 0 0 0 0 0 0 0 127 0" result="hardAlpha"/>
<feOffset dy="1"/>
<feGaussianBlur stdDeviation="2.5"/>
<feComposite in2="hardAlpha" operator="out"/>
<feColorMatrix type="matrix" values="0 0 0 0 0 0 0 0 0 0 0 0 0 0 0 0 0 0 0.05 0"/>
<feBlend mode="normal" in2="BackgroundImageFix" result="effect1_dropShadow_4954_38499"/>
<feColorMatrix in="SourceAlpha" type="matrix" values="0 0 0 0 0 0 0 0 0 0 0 0 0 0 0 0 0 0 127 0" result="hardAlpha"/>
<feOffset dy="2"/>
<feGaussianBlur stdDeviation="1"/>
<feComposite in2="hardAlpha" operator="out"/>
<feColorMatrix type="matrix" values="0 0 0 0 0 0 0 0 0 0 0 0 0 0 0 0 0 0 0.05 0"/>
<feBlend mode="normal" in2="effect1_dropShadow_4954_38499" result="effect2_dropShadow_4954_38499"/>
<feBlend mode="normal" in="SourceGraphic" in2="effect2_dropShadow_4954_38499" result="shape"/>
</filter>
<filter id="filter2_dd_4954_38499" x="429.661" y="303.874" width="15.3862" height="15.3864" filterUnits="userSpaceOnUse" color-interpolation-filters="sRGB">
<feFlood flood-opacity="0" result="BackgroundImageFix"/>
<feColorMatrix in="SourceAlpha" type="matrix" values="0 0 0 0 0 0 0 0 0 0 0 0 0 0 0 0 0 0 127 0" result="hardAlpha"/>
<feOffset dy="1"/>
<feGaussianBlur stdDeviation="2.5"/>
<feComposite in2="hardAlpha" operator="out"/>
<feColorMatrix type="matrix" values="0 0 0 0 0 0 0 0 0 0 0 0 0 0 0 0 0 0 0.05 0"/>
<feBlend mode="normal" in2="BackgroundImageFix" result="effect1_dropShadow_4954_38499"/>
<feColorMatrix in="SourceAlpha" type="matrix" values="0 0 0 0 0 0 0 0 0 0 0 0 0 0 0 0 0 0 127 0" result="hardAlpha"/>
<feOffset dy="2"/>
<feGaussianBlur stdDeviation="1"/>
<feComposite in2="hardAlpha" operator="out"/>
<feColorMatrix type="matrix" values="0 0 0 0 0 0 0 0 0 0 0 0 0 0 0 0 0 0 0.05 0"/>
<feBlend mode="normal" in2="effect1_dropShadow_4954_38499" result="effect2_dropShadow_4954_38499"/>
<feBlend mode="normal" in="SourceGraphic" in2="effect2_dropShadow_4954_38499" result="shape"/>
</filter>
<filter id="filter3_dd_4954_38499" x="412.535" y="305.803" width="29.8193" height="26.9222" filterUnits="userSpaceOnUse" color-interpolation-filters="sRGB">
<feFlood flood-opacity="0" result="BackgroundImageFix"/>
<feColorMatrix in="SourceAlpha" type="matrix" values="0 0 0 0 0 0 0 0 0 0 0 0 0 0 0 0 0 0 127 0" result="hardAlpha"/>
<feOffset dy="1"/>
<feGaussianBlur stdDeviation="2.5"/>
<feComposite in2="hardAlpha" operator="out"/>
<feColorMatrix type="matrix" values="0 0 0 0 0 0 0 0 0 0 0 0 0 0 0 0 0 0 0.05 0"/>
<feBlend mode="normal" in2="BackgroundImageFix" result="effect1_dropShadow_4954_38499"/>
<feColorMatrix in="SourceAlpha" type="matrix" values="0 0 0 0 0 0 0 0 0 0 0 0 0 0 0 0 0 0 127 0" result="hardAlpha"/>
<feOffset dy="2"/>
<feGaussianBlur stdDeviation="1"/>
<feComposite in2="hardAlpha" operator="out"/>
<feColorMatrix type="matrix" values="0 0 0 0 0 0 0 0 0 0 0 0 0 0 0 0 0 0 0.05 0"/>
<feBlend mode="normal" in2="effect1_dropShadow_4954_38499" result="effect2_dropShadow_4954_38499"/>
<feBlend mode="normal" in="SourceGraphic" in2="effect2_dropShadow_4954_38499" result="shape"/>
</filter>
</defs>
</svg>
